<?xml version="1.0" encoding="UTF-8" standalone="no"?>
<!-- Created with Inkscape (http://www.inkscape.org/) -->

<svg
   xmlns:dc="http://purl.org/dc/elements/1.1/"
   xmlns:cc="http://creativecommons.org/ns#"
   xmlns:rdf="http://www.w3.org/1999/02/22-rdf-syntax-ns#"
   xmlns:svg="http://www.w3.org/2000/svg"
   xmlns="http://www.w3.org/2000/svg"
   xmlns:sodipodi="http://sodipodi.sourceforge.net/DTD/sodipodi-0.dtd"
   xmlns:inkscape="http://www.inkscape.org/namespaces/inkscape"
   id="svg2"
   version="1.1"
   inkscape:version="0.91 r13725"
   width="148.11771mm"
   height="111.42121mm"
   viewBox="0 0 524.82652 394.79957"
   sodipodi:docname="logo_basic.svg"
   style="shape-rendering:crispEdges"
   inkscape:export-filename="/Users/avi/Documents/ESUC/website/public/img/logo_black.png"
   inkscape:export-xdpi="200"
   inkscape:export-ydpi="200">
  <metadata
     id="metadata8">
    <rdf:RDF>
      <cc:Work
         rdf:about="">
        <dc:format>image/svg+xml</dc:format>
        <dc:type
           rdf:resource="http://purl.org/dc/dcmitype/StillImage" />
        <dc:title></dc:title>
      </cc:Work>
    </rdf:RDF>
  </metadata>
  <defs
     id="defs6" />
  <sodipodi:namedview
     pagecolor="#ffffff"
     bordercolor="#666666"
     borderopacity="1"
     objecttolerance="10"
     gridtolerance="10"
     guidetolerance="10"
     inkscape:pageopacity="0.00392157"
     inkscape:pageshadow="2"
     inkscape:window-width="1280"
     inkscape:window-height="687"
     id="namedview4"
     showgrid="false"
     showborder="false"
     fit-margin-top="0"
     fit-margin-left="0"
     fit-margin-right="0"
     fit-margin-bottom="0"
     inkscape:zoom="1.2284715"
     inkscape:cx="196.47766"
     inkscape:cy="197.39979"
     inkscape:window-x="0"
     inkscape:window-y="1"
     inkscape:window-maximized="1"
     inkscape:current-layer="layer1"
     units="mm" />
  <g
     inkscape:groupmode="layer"
     id="layer1"
     inkscape:label="Layer 1"
     style="opacity:1"
     transform="translate(220.82276,78.571809)">
    <path
       style="fill:#313130;shape-rendering:crispEdges"
       d="m 40.275916,315.704 c -11.93308,-0.29244 -15.89778,-1.26926 -20.65906,-5.08993 -1.39118,-1.11634 -2.15016,-1.07736 -4.70034,0.24139 -3.87598,2.00434 -7.5352396,2.00704 -9.1953196,0.007 -2.07157,-2.49632 -6.56162013,-4.4343 -10.2731801,-4.4343 -1.88496,0 -3.98741,-0.675 -4.6721,-1.5 -0.72779,-0.87694 -2.9103303,-1.5 -5.2544103,-1.5 -4.33171,0 -8.996633,-2.40489 -13.606003,-7.01426 -2.46099,-2.46098 -3.37959,-2.76324 -6.9447,-2.28505 -3.50941,0.47071 -4.88049,0.0467 -9.40173,-2.90719 -2.91123,-1.90205 -9.34316,-5.62007 -14.29316,-8.26227 -9.60881,-5.12898 -13.5,-8.07059 -13.5,-10.20554 0,-2.13603 -3.80118,-5.32569 -6.34674,-5.32569 -1.69073,0 -5.88395,-3.6229 -14.999997,-12.95982 -10.544846,-10.80033 -12.653256,-13.46257 -12.653256,-15.97695 0,-2.21227 -0.73359,-3.47101 -2.75,-4.71858 -1.5125,-0.9358 -4.40575,-3.25651 -6.42945,-5.15712 -3.96418,-3.72305 -3.91797,-3.72642 -10.82055,0.78788 -2.475,1.61866 -6.975,4.17442 -10,5.67948 -3.025,1.50506 -6.4,3.50431 -7.5,4.44278 -1.1,0.93846 -4.8125,3.16916 -8.25,4.95709 -3.4375,1.78794 -6.25,3.55228 -6.25,3.92076 0,0.36848 -2.1375,1.72357 -4.75,3.0113 -2.6125,1.28774 -7.0115,3.7723 -9.77555,5.52126 -2.76405,1.74896 -9.28905,5.54455 -14.5,8.43465 -5.21095,2.8901 -11.72445,6.54978 -14.47445,8.13264 -8.13771,4.68393 -14.56865,3.56013 -18.03985,-3.15243 -2.50285,-4.83998 -0.50518,-10.12004 5.32128,-14.06471 2.59521,-1.75703 6.62102,-4.91892 8.94623,-7.02642 2.32521,-2.10749 4.70699,-3.83181 5.29284,-3.83181 0.58585,0 3.18341,-1.96244 5.77234,-4.36098 2.58894,-2.39854 6.50716,-5.54374 8.70716,-6.98934 7.3372,-4.82119 8.96569,-6.01876 14.41249,-10.59864 5.56004,-4.67511 6.81382,-5.63881 25.90476,-19.91136 7.82606,-5.85082 11.18275,-8.9697 11.18275,-10.39047 0,-1.82969 -2.45877,-7.95476 -5.31859,-13.24921 -0.59417,-1.1 -1.38532,-4.25 -1.75812,-7 -0.66319,-4.89212 -1.61665,-8.06447 -4.76718,-15.86134 -1.41949,-3.51293 -1.41499,-4.26535 0.0498,-8.33889 1.54987,-4.31001 1.52002,-4.73544 -0.79792,-11.36988 -2.0256,-5.79771 -2.40804,-8.79166 -2.40804,-18.85151 0,-10.30417 0.35289,-12.93748 2.55,-19.02836 2.34701,-6.50648 2.42661,-7.24533 1,-9.28211 -1.91014,-2.72709 -1.96582,-5.69809 -0.18714,-9.98398 2.21506,-5.33735 4.63714,-13.408704 4.63714,-15.452804 0,-3.50598 4.13598,-13.80511 6.58031,-16.38585 1.82997,-1.93209 2.41969,-3.66247 2.41969,-7.099963 0,-3.47679 0.71476,-5.53194 3.04061,-8.74269 1.67234,-2.30859 4.67006,-7.6303 6.6616,-11.826019 3.87263,-8.158749 9.26947,-14.9351466 13.03472,-16.3666896 2.38541,-0.906929 2.63568,-1.332917 3.75803,-6.396712 0.4393,-1.981996 4.56178,-6.935202 12.254216,-14.7235644 9.989617,-10.114207 12.353647,-11.990587 17.100067,-13.572728 5.4806,-1.826868 5.98484,-2.293377 7.98733,-7.389752 0.69511,-1.76905 3.52086,-4.092632 8.35682,-6.871708 4.01863,-2.309379 8.37808,-4.931604 9.68767,-5.827164 5.98589,-4.093455 10.86343,-6.013245 15.41991,-6.069265 4.12361,-0.0507 5.25234,-0.5374 8,-3.44956 3.98378,-4.22228 6.640683,-5.59998 10.883283,-5.6434 1.82367,-0.0187 5.11575,-0.90339 7.3157403,-1.96607 2.2,-1.06267 5.125,-1.94933 6.5,-1.97035 1.37499997,-0.021 4.4918701,-1.35965 6.9263601,-2.97473 4.37432,-2.90201 6.8053696,-2.91605 8.5769596,-0.0495 0.92149,1.49098 5.0835,1.19739 6.45517,-0.45535 0.66184,-0.79748 3.10901,-2.37248 5.43817,-3.5 3.57532,-1.73078 6.17713,-2.05003 16.70763,-2.05003 12.92387,0 14.6501,0.42088 22.13842,5.39766 2.78754,1.85261 7.75729,1.58564 7.75729,-0.41671 0,-1.49075 3.30492,-1.17441 7.00271,0.67029 5.44574,2.71669 16.25571,6.51492 19.99729,7.02632 5.003294,0.68384 9.059604,2.72323 12.437104,6.25296 2.3628,2.46931 3.75552,3.06948 7.12288,3.06948 4.02375,0 12.77096,3.10841 13.90338,4.94071 0.57715,0.933841 14.10716,8.669327 18.80476,10.751205 1.76736,0.783257 3.44959,2.816603 4.65312,5.624317 1.64706,3.842432 2.43373,4.537425 6.23189,5.505615 3.61977,0.922718 6.31231,3.101453 16.09688,13.025188 10.61095,10.7618654 11.75,12.2656104 11.75,15.5119924 0,2.839919 0.57752,3.954456 2.75,5.307119 1.5125,0.941737 4.68547,3.251064 7.05105,5.131837 3.83565,3.0495606 4.4849,3.2629306 6,1.9718706 1.60953,-1.3715196 12.80172,-7.8267626 18.19895,-10.49647565 1.375,-0.680137 5.35768,-3.04488395 8.85041,-5.25499495 3.49272,-2.21011 6.64272,-4.0309 7,-4.046201 0.35727,-0.0153 2.41725,-1.365301 4.57773,-3.0000004 2.16047,-1.634698 4.36551,-2.972179 4.90011,-2.972179 0.53458,0 4.39192,-2.188341 8.57186,-4.862982 4.17994,-2.674639 9.39989,-5.822127 11.59989,-6.994417 2.2,-1.17229 5.8,-3.248928 7.99999,-4.61475 8.85262,-5.495957 13.55215,-7.527852 17.41099,-7.527852 4.70771,0 8.91889,3.200995 9.20909,7 0.59291,7.761826 -1.04388,10.316576 -10.3675,16.181875 -2.61109,1.642578 -5.08609,3.555496 -5.5,4.250929 -0.80125,1.3462014 -9.44836,8.1677934 -19.73312,15.5671974 -3.44012,2.475 -7.77681,5.7692106 -9.63711,7.3204706 -5.07627,4.23299 -20.62531,16.096868 -27.02588,20.620688 -3.10394,2.19382 -6.26323,4.60846 -7.02064,5.36586 -0.7574,0.75741 -2.375,1.91117 -3.59466,2.56391 -3.23047,1.728903 -3.7477,5.286313 -1.42254,9.784033 3.45343,6.68022 5.18137,11.33066 5.18137,13.94471 0,1.3925 0.46239,3.3958 1.02753,4.45178 0.56515,1.05598 1.42203,3.83889 1.90419,6.184254 0.48217,2.34537 1.45423,5.68916 2.16013,7.43065 1.05543,2.60375 1.04071,3.90197 -0.0829,7.3064 -1.23736,3.74925 -1.16068,4.77855 0.81234,10.90459 3.2723,10.16015 3.138,28.52831 -0.27488,37.59549 -2.15983,5.73817 -2.30049,6.88252 -1.17491,9.55948 1.3343,3.17338 0.47866,8.91611 -2.97512,19.96769 -0.77347,2.475 -1.40409,5.29644 -1.40137,6.26987 0.008,2.82937 -4.81613,13.91077 -7.12617,16.36971 -1.57156,1.67284 -1.98433,3.09479 -1.6124,5.55443 0.48865,3.2316 -1.07541,7.67379 -3.80469,10.80599 -0.71888,0.825 -2.66443,4.2365 -4.32345,7.5811 -1.65901,3.34461 -3.71658,6.66221 -4.57236,7.37245 -0.85578,0.71024 -1.55597,2.16161 -1.55597,3.22527 0,2.11987 -4.91806,7.12739 -9.25,9.41826 -2.22115,1.17461 -2.75,2.14635 -2.75,5.05298 0,3.2966 -1.07032,4.63718 -12.75,15.96937 -10.05347,9.75436 -13.49023,12.49593 -16.25,12.96294 -6.17123,1.04429 -6.9847,1.50008 -7.55724,4.23428 -0.99492,4.75137 -1.92204,5.57825 -13.66046,12.18335 -6.35339,3.575 -12.33804,7.16699 -13.2992,7.9822 -1.02977,0.87338 -4.03034,1.5388 -7.30515,1.62 -4.52242,0.11214 -5.94129,0.58378 -7.61776,2.53218 -3.24678,3.77346 -8.98334,6.86562 -12.737054,6.86562 -1.89247,0 -4.31435,0.66069 -5.38198,1.4682 -1.06761,0.8075 -3.56675,1.4825 -5.55363,1.5 -2.47532,0.0218 -4.80082,0.97617 -7.3875,3.0318 -4.28041,3.40164 -7.41136,3.75614 -11.55518,1.30833 -2.57483,-1.52099 -3.04441,-1.53768 -4.65429,-0.16543 -2.25876,1.92535 -10.11379,5.92836 -11.07132,5.64207 -0.39556,-0.11827 -6.1192,-0.34738 -12.71921,-0.50913 z m 18.21434,-18.27584 c 0.67398,-4.675 1.49154,-10.6375 1.81681,-13.25 0.39372,-3.16229 1.06667,-4.75 2.01328,-4.75 1.57248,0 5.82296,7.78885 8.42466,15.43789 0.92375,2.71584 2.41584,5.40233 3.31574,5.96998 1.21601,0.76704 5.17746,0.004 15.42568,-2.97184 l 13.789494,-4.00393 -0.0115,-6.46605 c -0.006,-3.55633 -0.38801,-9.27855 -0.84819,-12.71605 -0.76506,-5.71511 -0.67849,-6.24944 1.01153,-6.2435 1.14857,0.004 3.93015,2.88113 7.34819,7.60052 6.49642,8.96981 8.42561,10.56867 11.37132,9.42418 1.90761,-0.74116 8.16293,-4.36289 18.78938,-10.87873 5.92589,-3.6336 5.93827,-5.49021 0.12002,-18.00264 -4.48528,-9.64582 -3.56146,-12.68136 2.39255,-7.86161 1.5547,1.25852 3.77312,2.94602 4.92982,3.75 1.15671,0.80398 4.02061,2.9126 6.36423,4.68583 3.58978,2.7161 4.59762,3.05078 6.3969,2.12421 3.59482,-1.85121 19.63575,-19.13756 19.63575,-21.16029 0,-1.04509 -1.46249,-3.73439 -3.25,-5.97622 -1.7875,-2.24183 -3.925,-5.06271 -4.75,-6.26861 -0.82499,-1.2059 -2.35439,-3.39704 -3.39864,-4.86919 -1.37541,-1.93899 -1.59693,-2.97837 -0.80382,-3.77148 0.79311,-0.79311 3.8481,0.0478 11.08538,3.05135 5.49481,2.2804 10.63229,4.14618 11.41663,4.14618 1.57546,0 15.69911,-23.52129 15.69994,-26.14641 5.4e-4,-1.71387 -2.83091,-4.38593 -12.358,-11.66232 -3.10281,-2.3698 -5.64149,-4.68415 -5.64149,-5.14301 0,-1.84303 3.6764,-1.98971 13.34929,-0.5326 9.9387,1.49716 10.18559,1.48662 11.82016,-0.50458 0.91818,-1.11852 3.03095,-7.758 4.69502,-14.75439 3.61757,-15.20971 3.96917,-14.4319 -9.00773,-19.92685 -7.42427,-3.14374 -8.88728,-4.12629 -8.64652,-5.80692 0.25349,-1.7695 1.60519,-2.21083 10.78978,-3.52292 5.775,-0.825 11.0625,-1.86406 11.75,-2.30902 0.90414,-0.58516 1.25,-4.77086 1.25,-15.12755 0,-11.72377 -0.28138,-14.55207 -1.55272,-15.60719 -0.85402,-0.70876 -6.0073,-1.77636 -11.45176,-2.37245 -9.96699,-1.09123 -13.44506,-2.53424 -11.29372,-4.68559 0.606,-0.60599 4.85186,-2.63685 9.43525,-4.51302 12.27881,-5.02622 12.33805,-5.11867 9.88637,-15.42987 -3.07984,-12.953104 -4.92181,-18.626094 -6.46301,-19.905184 -1.07184,-0.88955 -3.38369,-0.87814 -9.73307,0.048 -11.67936,1.70363 -13.21743,1.67545 -13.60414,-0.24925 -0.22466,-1.11813 3.42774,-4.50747 11.31492,-10.5 6.40567,-4.866893 12.6176,-9.506383 13.80428,-10.309963 1.18669,-0.80359 4.63261,-3.52666 7.65761,-6.05128 3.025,-2.52462 9.1,-7.30223 13.5,-10.616919 7.68166,-5.786889 10.40499,-7.868169 24.59957,-18.79995965 3.52022,-2.71105095 10.22542,-7.85095495 14.90042,-11.42198835 21.09695,-16.115054 23.28594,-18.334345 19.51234,-19.782411 -1.26869,-0.486847 -4.65503,1.152961 -12.64014,6.120898 -0.8953,0.557007 -6.52029,3.85812 -12.5,7.335807 -5.9797,3.477688 -15.91556,9.3276874 -22.07968,13.0000004 -6.16412,3.672314 -12.46412,7.409628 -14,8.305142 -1.53588,0.895514 -6.61751,4.006472 -11.29251,6.9132526 -7.62451,4.74069 -12.55145,7.598149 -19.87442,11.526528 -3.23874,1.73741 -4.60821,0.99055 -7.62603,-4.158979 -1.42112,-2.424949 -3.32178,-4.409009 -4.22366,-4.409009 -0.90189,0 -6.07238,1.81762 -11.48998,4.039159 -9.00512,3.69264 -11.78592,4.182249 -11.78592,2.07514 0,-0.42221 3.15,-4.973649 7,-10.1142986 3.85001,-5.140651 7,-9.70161405 7,-10.13547305 0,-1.11404595 -17.96143,-19.77351835 -20.17324,-20.95724535 -1.22985,-0.658203 -2.51897,-0.607193 -3.94522,0.156112 -2.80921,1.503447 -13.66699,9.780441 -14.41261,10.986884 -0.74212,1.2007764 -4.17063,1.2413974 -4.90195,0.05808 -0.30309,-0.490403 1.27474,-5.004998 3.50628,-10.032435 2.23154,-5.027437 3.91547,-10.133405 3.74205,-11.346595 -0.52015,-3.638882 -22.47634,-17.332969 -26.11959,-16.2908 -1.20765,0.345452 -4.79229,4.230714 -7.9659,8.633915 -5.30697,7.363125 -8.05708,9.933622 -9.29902,8.691683 -0.26562,-0.265622 0.15457,-5.383714 0.93376,-11.373538 0.88093,-6.771927 1.07425,-11.538082 0.51118,-12.602682 -0.52007,-0.9833 -3.985284,-2.60288 -8.140634,-3.80477 -3.9793,-1.15097 -9.22776,-2.74303 -11.66324,-3.53791 -5.44293,-1.77643 -9.52888,-1.85066 -10.74603,-0.19523 -0.50548,0.6875 -2.43009,5.075 -4.27692,9.75 -5.72681,14.496654 -7.30063,14.475829 -9.01927,-0.11934 -0.623,-5.29064 -1.47887,-10.91564 -1.90194,-12.5 l -0.76923,-2.88066 -14.85152,-0.27772 c -8.16834,-0.15274 -15.19029,0.0722 -15.60433,0.5 -0.41404,0.42775 -1.2722,5.50272 -1.90699,11.27772 -2.18862,19.9107 -3.87752,19.540851 -12.55781,-2.75 -1.96501,-5.04613 -3.5869296,-5.32126 -13.5194197,-2.29335 -3.53013,1.07616 -9.0355903,2.69172 -12.2343703,3.59014 -3.19879,0.89842 -6.06862,2.29184 -6.37739,3.0965 -0.30877,0.80465 0.008,6.402473 0.70291,12.439596 0.69537,6.037124 1.0421,11.198799 0.77051,11.470391 -1.25208,1.252081 -4.046283,-1.313028 -9.392473,-8.622422 -3.1885,-4.359357 -6.54169,-8.162376 -7.45155,-8.451153 -1.91776,-0.608675 -4.40893,0.195899 -7.93604,2.563104 -1.375,0.922826 -5.77994,3.602879 -9.78875,5.955674 -4.00881,2.352795 -7.71275,5.070071 -8.23098,6.03839 -0.98881,1.8476 0.75301,7.880525 4.97308,17.22466 1.18274,2.618839 1.87553,5.206338 1.53953,5.749999 -0.93832,1.5182324 -3.30056,1.1772524 -5.2757,-0.761527 -1.76501,-1.732526 -11.57617,-9.196133 -13.94651,-10.609482 -0.67614,-0.403154 -2.0489,-0.294387 -3.0506,0.241704 -2.06778,1.106642 -18.266417,17.4492244 -19.525407,19.6989124 -0.9322,1.66574295 1.28322,5.737878 7.986567,14.6800376 2.37532,3.16864 4.31877,6.206139 4.31877,6.749999 0,1.75364 -3.62203,1.06126 -11.146387,-2.13073 -4.04448,-1.715759 -8.781196,-3.335909 -10.526036,-3.600349 -2.76014,-0.41831 -3.38269,-0.0742 -4.79036,2.64794 -0.88986,1.720799 -4.09899,7.263818 -7.1314,12.317818 -3.61936,6.03227 -5.3353,9.88736 -4.99485,11.22163 0.28524,1.11788 3.79696,4.476043 7.80383,7.462563 4.00686,2.98653 7.86321,6.13123 8.56965,6.98823 2.06569,2.50594 -0.88657,3.98908 -6.04605,3.03739 -2.33112,-0.42999 -7.14779,-0.93342 -10.70371,-1.11873 -6.26691,-0.32659 -6.50823,-0.24877 -7.8635,2.53602 -2.00571,4.12129 -6.99022,24.865844 -6.37133,26.516234 0.28651,0.76404 3.93625,2.91085 8.11054,4.77069 11.32416,5.04544 12.5896,5.78466 12.5896,7.35439 0,1.83648 -2.87584,2.6225 -13.86176,3.78867 -5.56476,0.59071 -9.18653,1.45344 -9.73468,2.31888 -1.43188,2.26065 -1.12412,29.45958 0.34644,30.61784 0.6875,0.54149 5.91152,1.50033 11.60894,2.13075 11.23865,1.24356 12.14106,1.51867 12.14106,3.70123 0,1.39177 -7.75152,5.3992 -13,6.72082 -1.375,0.34624 -3.93274,1.88458 -5.68388,3.41854 l -3.18387,2.78901 2.40573,9.5 c 3.69283,14.58268 4.40753,16.80266 5.88517,18.28029 1.15951,1.15951 2.93724,1.15669 11.58769,-0.0184 5.61994,-0.76341 10.84157,-1.14877 11.60362,-0.85634 2.12003,0.81353 1.64954,3.38354 -0.86446,4.72195 -1.23749,0.65882 -6.3,4.39311 -11.25,8.29841 -4.95,3.90531 -13.275,10.35054 -18.5,14.32274 -5.225,3.9722 -13.55,10.37229 -18.5,14.22242 -4.95,3.85012 -14.175,10.96048 -20.5,15.80078 -6.325,4.84031 -16.03839,12.27638 -21.58531,16.5246 -5.54692,4.24823 -11.10657,8.81112 -12.35477,10.13977 -2.35665,2.50854 -2.07869,4.56378 0.61723,4.56378 1.41411,0 23.65596,-12.68523 37.32285,-21.28641 20.31856,-12.78736 55.28212,-32.81931 56.48012,-32.35959 0.78896,0.30275 2.59791,2.39345 4.01988,4.646 1.42197,2.25255 3.24308,4.34791 4.0469,4.65637 0.80381,0.30845 5.91628,-1.34137 11.361046,-3.66627 12.250327,-5.23086 15.141187,-4.43651 9.342047,2.56699 -6.277467,7.58118 -10.249997,13.35713 -10.249997,14.90325 0,2.20442 17.896217,20.47544 20.759307,21.19407 1.71646,0.43082 4.20153,-0.91727 10.34249,-5.61054 4.44575,-3.39769 8.71276,-6.41922 9.48226,-6.7145 2.81829,-1.08148 2.42422,2.55493 -1.1604,10.70782 -5.87062,13.3522 -5.9474,13.13591 7.50886,21.15216 6.28788,3.74586 12.4371,6.81065 13.66493,6.81065 2.14084,0 5.2515,-3.36783 12.40255,-13.42794 1.375,-1.93435 3.345473,-3.52939 4.378833,-3.54453 1.66323,-0.0244 1.80834,0.51754 1.26454,4.72247 -1.78579,13.80854 -1.89369,18.79736 -0.4328,20.0098 1.37862,1.14414 14.3458703,5.30083 23.4959504,7.53168 5.05882,1.23337 6.6685796,0.24284 8.3231696,-5.12147 2.16073,-7.00528 6.92364,-16.17001 8.40356,-16.17001 1.58265,0 1.73908,0.69132 3.62068,16 0.6422,5.225 1.37648,9.84904 1.63173,10.27564 0.25524,0.42661 7.29039,0.65161 15.63368,0.5 l 15.16961,-0.27564 1.22539,-8.5 z m -27.05167,0.51982 c -1.49433,-1.49433 -2.04486,-4.08795 -3.18815,-15.01982 -0.34513,-3.3 -1.01711,-7.8 -1.49329,-10 -0.47618,-2.2 -1.12534,-5.2375 -1.44257,-6.75 -0.39074,-1.86303 -1.20592,-2.75 -2.52742,-2.75 -1.44793,0 -2.81929,1.88002 -5.321,7.29464 -1.85368,4.01205 -3.69948,8.60609 -4.10178,10.20897 -1.11426,4.43957 -5.6942596,13.32302 -7.1585996,13.88493 -1.89178,0.72595 -18.3268704,-3.85699 -20.0650304,-5.59515 -1.30305,-1.30304 -1.28224,-2.8818 0.17636,-13.38533 2.83917,-20.44509 2.90675,-22.0222 0.97527,-22.76337 -1.98196,-0.76055 -5.18531,2.40368 -13.516463,13.35146 -11.19858,14.71582 -11.07021,14.6305 -16.5,10.96602 -1.65,-1.11356 -4.34999,-2.70052 -6,-3.52659 -7.91597,-3.9631 -8.45321,-6.3023 -3.77471,-16.43558 1.65057,-3.575 3.33424,-7.625 3.74151,-9 0.40726,-1.375 1.65572,-4.3767 2.77436,-6.67044 3.83086,-7.85507 -0.57858,-9.8402 -8.24116,-3.71017 -12.34925,9.87935 -18.9729,14.38061 -21.16121,14.38061 -3.34929,0 -14.838788,-11.63833 -14.838788,-15.031 0,-2.35944 1.54393,-4.62956 12.085738,-17.77033 5.7148,-7.12371 7.07137,-9.6257 6.3037,-11.62623 -0.98229,-2.55977 -3.78391,-1.88975 -18.601157,4.44848 -13.305116,5.69141 -14.204416,5.93643 -16.431856,4.47695 -3.16146,-2.07146 -3.21992,-6.92294 -0.10642,-8.8297 1.23751,-0.75786 6.30001,-3.75317 11.249996,-6.65623 10.105227,-5.9265 15.932357,-9.45347 21.084787,-12.76194 5.41015,-3.47395 6.85007,-2.97592 11.5649,4 8.26756,12.23238 27.96136,31.75 32.03658,31.75 0.78215,0 2.54241,-3.27707 4.16288,-7.75 6.332293,-17.47885 11.850283,-32.98553 13.077333,-36.75 3.20316,-9.8269 5.7140703,-13.5 9.2285103,-13.5 2.98565,0 3.04742,2.22069 0.24109,8.66709 -1.15716,2.6581 -3.36588,8.65791 -4.90827,13.33291 -1.5423903,4.675 -4.2248703,12.325 -5.9610703,17 -1.7362,4.675 -3.98812,10.81853 -5.00425,13.65228 -1.01614,2.83375 -2.368123,6.12502 -3.004403,7.31392 -1.63314,3.05156 -0.48317,4.0938 10.277713,9.31491 13.53379067,6.5665 18.6207804,8.1456 37.93354,11.77531 4.53559,0.85244 6.16455,1.68799 7.8181,4.01019 1.96297,2.75673 2.50212,2.93339 8.95256,2.93339 6.42638,0 6.99492,-0.18411 8.92084,-2.88881 2.25986,-3.17371 3.43148,-3.60108 13.96931,-5.09561 7.44764,-1.05626 24.03859,-6.09908 27.579,-8.38263 1.11697,-0.72044 4.05586,-2.08458 6.53086,-3.03142 2.475004,-0.94685 5.554704,-2.58834 6.843774,-3.64776 l 2.34378,-1.92622 -2.72677,-7.26378 c -4.94275,-13.16689 -9.901064,-26.74871 -13.421344,-36.76377 -6.05766,-17.23389 -12.16375,-34.30568 -15.02218,-42 -6.13072,-16.50265 -7.15814,-19.91145 -6.83933,-22.69154 0.25322,-2.20813 0.83495,-2.80846 2.72143,-2.80846 1.8346,0 2.69703,0.82384 3.66394,3.5 0.69552,1.925 4.05989,11.15 7.47637,20.5 3.41649,9.35 7.46791,20.6 9.00315,25 1.53524,4.4 4.21454,11.825 5.95398,16.5 1.739434,4.675 4.252974,11.875 5.585664,16 1.33267,4.125 2.87265,8.4 3.42216,9.5 0.54951,1.1 2.08285,5.13653 3.40742,8.97006 1.32458,3.83353 2.81775,7.10654 3.31818,7.27335 1.19028,0.39676 14.245,-10.76912 21.57254,-18.45127 14.67391,-15.38406 26.88716,-39.43214 31.38225,-61.79214 1.39811,-6.95462 1.77845,-13.20438 1.67357,-27.5 -0.13279,-18.10018 -0.67793,-22.32492 -5.00671,-38.80107 -1.20445,-4.58436 9.0497,-12.495094 18.21646,-14.053384 12.8771,-2.18903 26.55217,-3.29043 27.81734,-2.24043 1.77511,1.47322 6.20161,19.917704 5.04516,21.022344 -0.51196,0.48902 -6.78084,3.42032 -13.93084,6.51401 -16.49074,7.13527 -16,6.83875 -16,9.66752 0,2.2744 0.53648,2.47312 11,4.07464 18.79553,2.87678 21.69149,3.50923 22.59407,4.93431 1.15113,1.81755 1.13274,18.97534 -0.0223,20.80017 -0.92792,1.46602 -3.89661,2.06282 -22.57177,4.53762 -6.05,0.80174 -11.14239,1.47718 -11.31642,1.50099 -0.17403,0.0238 -0.17403,1.27282 0,2.7756 0.28887,2.49444 1.5528,3.25624 14.51745,8.75 7.81057,3.30972 14.72668,6.54379 15.36914,7.18682 0.89081,0.8916 0.88271,2.43462 -0.0341,6.5 -2.0967,9.29694 -4.09017,14.63765 -5.69326,15.25282 -0.85495,0.32807 -8.55401,-0.37105 -17.10902,-1.55361 -14.90565,-2.06042 -15.60909,-2.07554 -16.86172,-0.36247 -2.06988,2.83073 -1.80798,3.10494 15.22198,15.93736 6.74864,5.08523 9.40598,7.86735 9.40598,9.84762 0,2.92557 -7.04812,15.69456 -9.57788,17.35212 -2.07137,1.35722 -3.28326,1.0126 -16.36807,-4.65453 -7.77209,-3.36614 -14.90124,-5.97426 -15.84256,-5.79581 -3.2221,0.61084 -2.58935,5.1666 1.37519,9.90127 3.6247,4.32884 13.26607,17.15982 14.80288,19.70007 0.96207,1.59024 -0.68804,4.1395 -7.02799,10.8575 -7.10847,7.53236 -7.63065,7.52606 -17.99389,-0.2172 -4.87723,-3.64419 -9.31768,-7.16586 -9.86768,-7.82593 -3.20711,-3.84895 -9.55978,-5.93869 -10.99478,-3.6168 -0.56564,0.91523 4.10951,13.8782 8.52877,23.6481 2.44412,5.40334 3.16578,8.61371 2.22596,9.90244 -1.38502,1.89919 -15.58258,10.45791 -17.34805,10.45791 -1.83893,0 -3.16834,-1.45286 -11.91193,-13.01817 -9.912124,-13.11096 -10.921714,-14.09409 -13.213634,-12.8675 -1.75594,0.93975 -1.94397,1.71577 -1.38988,5.73622 3.57784,25.96069 3.7654,28.41613 2.28379,29.89774 -0.80238,0.80238 -4.5462,2.36205 -8.31957,3.46593 -11.73888,3.43412 -11.7818,3.43212 -14.19655,-0.66058 -1.17751,-1.99573 -2.99906,-6.19923 -4.04789,-9.34112 -3.81378,-11.42463 -7.88979,-19.21252 -10.05539,-19.21252 -1.30257,0 -2.17714,0.80111 -2.45632,2.25 -2.11975,11.00093 -2.67741,14.32041 -3.64691,21.70805 -1.62002,12.34469 -1.30774,12.04195 -12.4214,12.04195 -6.96045,0 -9.77677,-0.38338 -10.87357,-1.48018 z m 13.26578,-11.76982 c 1.56649,-3.98 3.2792,-18.94235 2.2824,-19.93915 -0.51251,-0.51251 -3.13211,-0.79211 -5.82134,-0.62134 -5.53373,0.3514 -5.23511,-0.60096 -3.86005,12.31049 0.41002,3.85 1.14946,7.7875 1.6432,8.75 1.27471,2.48494 4.698,2.18756 5.75579,-0.5 z M 1.9471764,281.77317 c 1.00581,-0.91024 1.82874,-2.31215 1.82874,-3.11534 0,-0.8032 1.52426,-4.71521 3.38723,-8.69335 4.8671796,-10.39321 5.3010596,-13.05113 2.4278,-14.87249 -3.53418,-2.24033 -8.3188997,-2.97108 -9.54837973,-1.45829 -0.5786204,0.71195 -1.26338037,3.31946 -1.52170037,5.79446 -0.25831,2.475 -1.04952,8.19705 -1.75824,12.71568 -1.04369,6.65435 -1.04658,8.50726 -0.0152,9.75 1.63288,1.9675 2.92549997,1.9375 5.1997501,-0.12067 z m 84.8758696,0.0982 c 1.05083,-1.2662 1.0572,-3.08606 0.0341,-9.75 -0.69187,-4.50628 -1.49146,-10.21823 -1.77687,-12.69323 -0.28541,-2.475 -0.95988,-5.0434 -1.49884,-5.70756 -1.86514,-2.29843 -11.84821,1.07663 -11.7742,3.98061 0.0172,0.67482 1.13809,3.47695 2.49086,6.22695 1.35277,2.75 2.4637,5.5053 2.46873,6.12288 0.0115,1.41883 3.93279,10.46114 5.25898,12.12712 1.348,1.69338 3.23758,1.57255 4.79728,-0.30677 z M -34.968847,261.8051 c 2.33462,-3.09269 6.38226,-8.24797 8.99476,-11.4562 2.61251,-3.20822 4.750003,-6.26008 4.750003,-6.78191 0,-1.37281 -8.484263,-6.13883 -10.928063,-6.13883 -1.13957,0 -2.07194,0.62062 -2.07194,1.37916 0,0.75853 -1.17475,4.02103 -2.61058,7.25 -8.06709,18.14181 -7.80511,17.25401 -5.75854,19.51546 0.9235,1.02046 2.06171,1.85538 2.52935,1.85538 0.46764,0 2.76039,-2.53038 5.09501,-5.62306 z m 161.541327,1.09833 c 0.1928,-1.96644 -1.29419,-6.4521 -4.25,-12.82057 -2.5006,-5.38771 -4.54656,-10.43908 -4.54656,-11.22527 0,-1.98486 -1.07846,-1.80976 -6.91784,1.12319 -2.79519,1.40395 -5.08216,3.2053 -5.08216,4.00301 0,0.7977 3.15051,5.30457 7.00115,10.01525 3.85063,4.71068 7.48108,9.46164 8.06766,10.55768 1.68045,3.13997 5.36198,2.07731 5.72775,-1.65329 z M -68.993467,236.67816 c 2.98781,-2.0625 7.69809,-5.55 10.46729,-7.75 2.76919,-2.2 5.83359,-4.46818 6.80976,-5.0404 1.59324,-0.93393 1.3255,-1.47006 -2.61641,-5.23922 -2.41519,-2.30935 -4.92558,-4.20367 -5.57864,-4.2096 -1.2053,-0.0109 -9.11576,9.12366 -15.09635,17.43253 -2.69856,3.74912 -3.09325,4.91803 -2.21482,6.5594 1.43934,2.68943 1.95243,2.58015 8.22917,-1.75271 z m 230.046027,1.68408 c 1.75088,-2.79513 -13.63592,-22.93408 -17.52236,-22.93408 -2.41735,0 -9.41435,6.76189 -8.18131,7.90639 2.05295,1.90554 12.14505,9.80347 15.42703,12.07298 1.92501,1.33115 3.87465,3.03178 4.33256,3.77918 1.05769,1.72639 4.65914,1.22685 5.94408,-0.82447 z m 25.65999,-34.81568 c 0.84431,-1.5776 0.15044,-2.66813 -4.29484,-6.75 -9.01988,-8.28249 -14.90762,-12.4741 -17.08435,-12.16272 -2.14849,0.30734 -6.9558,8.34074 -5.95768,9.95574 0.84616,1.36912 8.42199,5.10892 13.91634,6.8698 2.75886,0.88419 5.90886,2.12519 7,2.75779 2.93082,1.69916 5.2838,1.45339 6.42053,-0.67061 z M 204.58406,162.264 c 0.23728,-2.05142 -0.22272,-2.82955 -2,-3.38329 -1.26948,-0.39553 -4.55814,-1.81137 -7.30814,-3.14633 -7.14891,-3.47036 -16.36541,-6.57184 -17.84359,-6.00461 -1.31955,0.50635 -4.01085,10.31586 -3.1932,11.63884 0.2583,0.41795 4.64726,1.31273 9.75322,1.98839 5.10597,0.67566 9.95858,1.37618 10.78357,1.5567 0.825,0.18053 3.30001,0.25763 5.5,0.17134 3.54123,-0.13889 4.03535,-0.46244 4.30814,-2.82104 z M 194.5192,123.95002 c 19.12679,-2.39576 20.52909,-8.45037 2.32772,-10.05025 -4.16405,-0.36601 -9.371,-1.05756 -11.571,-1.53676 -4.88336,-1.06371 -6.5,0.50866 -6.5,6.32202 0,5.05161 1.62173,8.11275 3.82669,7.22314 0.92032,-0.37131 6.28279,-1.25247 11.91659,-1.95815 z m -9.76261,-37.65279 c 5.23154,-2.01982 14.75985,-6.14927 18.01933,-7.80936 0.825,-0.42018 1.63982,-1.70006 1.81068,-2.84418 0.36319,-2.43175 -3.08676,-4.709764 -5.63882,-3.723324 -0.91951,0.35542 -5.47861,1.08062 -10.13131,1.611564 -11.36322,1.29671 -15.24727,4.70981 -13.02438,11.4452 1.33794,4.05398 1.73286,4.11214 8.96451,1.3201 z M 39.347356,248.85673 c -1.40724,-1.40724 -1.57144,-11.83463 -1.57144,-99.8 0,-75.06667 0.28297,-98.511534 1.2,-99.428574 1.80186,-1.80186 4.59814,-1.4457 5.76482,0.73426 0.69327,1.29539 1.03518,34.135624 1.03518,99.428574 0,87.29786 -0.16435,97.65866 -1.57143,99.06574 -0.86427,0.86429 -1.95714,1.57143 -2.42857,1.57143 -0.47143,0 -1.56429,-0.70714 -2.42856,-1.57143 z m -22.57144,-7.92805 c -13.6799796,-3.08251 -30.13214,-9.54497 -32.95319,-12.94412 -1.43654,-1.73092 -1.76633,-0.59114 8.2627203,-28.5564 2.46556,-6.875 5.6777,-15.875 7.13810997,-20 C 6.6695664,158.3965 6.5004364,158.70771 12.615696,154.78597 c 3.11313,-1.99646 7.99799,-5.18146 10.85524,-7.07778 9.41276,-6.24709 8.76817,-9.37796 9.06491,44.03072 0.17286,31.11313 -0.0901,47.43777 -0.78519,48.73646 -1.22622,2.29121 -6.15597,2.44045 -14.97474,0.45331 z m 7.39302,-11.08231 c 0.33384,-0.86998 0.60698,-16.6341 0.60698,-35.03138 0,-37.43992 0.17634,-36.60322 -6.91413,-32.8068 -3.07516,1.64652 -3.95762,2.98815 -6.19612,9.41997 -1.43565,4.125 -3.3619896,9.525 -4.2807596,12 -0.91878,2.475 -2.75246,7.65 -4.07482,11.5 -1.32237,3.85 -3.37549973,9.475 -4.5625201,12.5 -2.77074,7.06099 -4.30418,13.69105 -3.59437,15.54079 1.12754,2.93832 15.9503197,8.28083 23.2657297,8.38557 3.81501,0.0546 5.29975,-0.3348 5.75001,-1.50815 z m 27.85698,11.47856 c -1.96789,-2.04154 -1.80052,-107.66577 0.17508,-110.48634 2.22118,-3.17118 9.08665,-7.53503 10.81259,-6.87272 1.33105,0.51077 7.03257,13.75614 9.23854,21.46229 0.39361,1.375 2.20244,6.325 4.01961,11 1.81719,4.675 4.43531,11.875 5.81806,16 1.38275,4.125 3.92152,11.325 5.64171,16 1.7202,4.675 4.20598,11.65 5.52397,15.5 1.31799,3.85 3.57507,10.12906 5.01574,13.95346 3.444214,9.14303 2.922754,10.94463 -4.06184,14.03355 -16.65221,7.3644 -39.28789,12.41369 -42.18346,9.40976 z m 16.25,-10.23974 c 11.38394,-1.74898 21.5,-6.45916 21.5,-10.01069 0,-1.27215 -0.3084,-2.62141 -0.68533,-2.99834 -0.76889,-0.76889 -3.01351,-6.59531 -4.29476,-11.148 -1.19891,-4.26013 -7.67399,-22.16536 -10.12566,-28 -0.46221,-1.1 -2.36705,-6.5 -4.23298,-12 -5.97645,-17.61609 -7.07409,-20 -9.20871,-20 -1.90196,0 -1.95931,1.09951 -2.21355,42.43419 -0.27022,43.93336 -0.16879,45.11342 3.70712,43.13182 0.85462,-0.43694 3.35388,-1.07098 5.55387,-1.40898 z M -155.5528,229.76611 c -0.91787,-0.91788 2.28861,-4.33795 4.06704,-4.33795 0.78559,0 1.25369,0.52399 1.04021,1.16442 -0.55056,1.65169 -4.29955,3.98123 -5.10725,3.17353 z m 115.214503,-18.69398 c -6.05834,-5.17178 -9.09546,-8.52791 -16.53224,-18.2687 -6.69894,-8.77436 -6.66936,-11.27616 0.17262,-14.60024 5.69944,-2.76901 7.47383,-1.51887 7.47383,5.26563 0,8.86458 1.94881,9.99841 8.57186,4.98716 2.16048,-1.6347 4.33566,-2.9847 4.83375,-3 0.49808,-0.0153 2.29808,-1.08612 4,-2.37961 4.02204,-3.05681 9.08936,-5.64821 11.044743,-5.64821 2.82479,0 2.34495,1.81374 -7.775763,29.39155 -3.88893,10.59692 -4.21776,10.71553 -11.78879,4.25242 z m 156.299527,4.07932 c -1.10282,-1.32882 -4.19613,-9.54956 -14.38269,-38.22329 -3.321664,-9.35 -7.359994,-20.6 -8.974064,-25 -5.57117,-15.18708 -6.94924,-19.03124 -9.85832,-27.5 -1.60589,-4.675 -2.93115,-9.25327 -2.94502,-10.17394 -0.0307,-2.03787 2.54645,-4.08926 15.47478,-12.31775 22.461894,-14.29631 23.495484,-14.63884 23.505584,-7.78969 0.008,5.63879 1.83147,11.28138 3.64509,11.28138 1.33075,0 14.19454,-9.19828 25.06256,-17.92104 8.69837,-6.98137 9.2933,-7.31843 10.76359,-6.09819 1.96292,1.62907 3.17649,5.71676 5.49808,18.51923 2.63208,14.51468 2.5372,24.4303 -0.37833,39.54234 -4.36577,22.62886 -11.53923,39.1956 -24.22994,55.95766 -4.66224,6.15798 -19.5957,21 -21.12935,21 -0.54581,0 -1.4692,-0.57452 -2.05196,-1.27671 z m 10.99393,-18.47329 c 1.97181,-2.0625 4.65064,-5.37724 5.95295,-7.36608 1.3023,-1.98885 4.05531,-6.16009 6.11781,-9.26942 2.0625,-3.10933 3.75,-5.89484 3.75,-6.19 0,-0.29517 1.31316,-3.18335 2.91812,-6.41818 7.18874,-14.489 10.47335,-29.24018 10.46679,-47.00632 -0.007,-19.01597 -1.86366,-26.44301 -5.85188,-23.40915 -0.65733,0.50003 -3.63367,2.55893 -6.61408,4.57532 -2.98042,2.01639 -6.85523,5.00459 -8.6107,6.64043 -6.23836,5.81327 -8.90213,7.1934 -13.88387,7.1934 -5.19887,0 -8.42438,-1.9989 -8.42438,-5.22073 0,-4.46067 -4.61076,-7.83612 -6.50882,-4.76498 -0.34479,0.55786 -2.28384,1.86624 -4.30902,2.9075 -2.025184,1.04127 -5.401644,3.39734 -7.503244,5.23571 -3.76549,3.29386 -3.8055,3.40435 -2.75,7.5925 0.5891,2.3375 1.54465,6.14478 2.12345,8.46063 0.5788,2.31585 1.41908,4.67835 1.86729,5.25 0.44821,0.57165 1.79038,3.96437 2.98261,7.53937 1.19222,3.575 2.787544,7.85 3.545154,9.5 0.75761,1.65 1.92154,5.025 2.5865,7.5 0.66497,2.475 2.45913,7.2 3.98704,10.5 1.5279,3.3 3.10019,7.575 3.494,9.5 0.3938,1.925 1.06207,3.95 1.48505,4.5 0.42298,0.55 1.10254,2.55705 1.51013,4.46012 1.36597,6.37775 4.30588,12.03988 6.25138,12.03988 1.00793,0 3.4459,-1.6875 5.41772,-3.75 z m -255.60247,13.17809 c 2.70778,-2.51456 7.17323,-6.10041 9.92323,-7.96857 2.75,-1.86816 8.7985,-6.80859 13.44111,-10.97875 4.6426,-4.17015 11.918746,-10.01895 16.169205,-12.99734 4.250478,-2.97838 10.126988,-7.34308 13.058898,-9.69933 6.39557,-5.13982 15.29177,-11.93149 22.24228,-16.98053 2.79867,-2.03303 6.09753,-4.44501 7.33078,-5.35995 2.59278,-1.92356 5.25772,-1.29426 5.25772,1.24156 0,0.96138 0.73615,3.6755 1.63587,6.03139 2.00238,5.24319 4.02593,5.49261 10.26462,1.26523 2.42027,-1.63999 4.81778,-2.9818 5.32782,-2.9818 0.83704,0 30.7021034,-19.32511 36.771703,-23.79427 6.08248,-4.47865 15.19451,-9.34507 16.53489,-8.83071 1.10532,0.42415 1.4651,2.39101 1.4651,8.00957 0,7.42933 -0.009,7.45429 -3.75,10.31515 -2.0625,1.57729 -5.55,4.01546 -7.75,5.41817 -11.6698996,7.44065 -15.9096196,10.19498 -25.4999997,16.56602 -5.7750003,3.83643 -13.8289803,8.91067 -17.8977233,11.27609 -4.06875,2.36542 -8.96906,5.36708 -10.88956,6.67037 -5.70811,3.87363 -8.21272,2.87397 -8.21272,-3.27792 0,-3.13964 -1.47632,-5.93754 -3.55357,-6.73465 -1.88048,-0.72161 -11.26167,3.83462 -23.66996,11.49595 -4.79794,2.96243 -14.15549,8.53623 -20.794567,12.38623 -18.893846,10.95654 -25.707376,15.01446 -30.621956,18.23745 -1.87648,1.2306 -4.52937,2.51795 -5.89531,2.86078 -1.36594,0.34283 -2.73083,1.02348 -3.0331,1.51255 -0.30226,0.48907 -1.05096,0.88922 -1.66377,0.88922 -0.61282,0 1.10124,-2.05736 3.80901,-4.57191 z m 2.66852,-35.13473 c -2.91939,-2.51299 -6.93165,-19.06692 -5.05201,-20.84373 0.7187,-0.67937 7.5158,-3.82837 15.10468,-6.99777 19.358156,-8.08471 20.194976,-10.73957 4.09487,-12.99125 -20.3438,-2.84519 -21.68219,-3.13585 -23.04939,-5.00561 -1.77141,-2.42255 -1.84386,-18.43864 -0.0934,-20.65666 1.18719,-1.50432 12.01417,-3.65921 26.97009,-5.36783 5.98921,-0.68423 8.214506,-2.1344 7.22644,-4.70927 -0.32339,-0.84274 -4.94365,-3.34144 -10.26726,-5.55266 -5.3236,-2.21122 -11.02927,-4.72597 -12.67927,-5.58833 -1.65,-0.86236 -3.49276,-1.5707 -4.09501,-1.57409 -0.60226,-0.003 -1.83819,-0.82736 -2.74651,-1.83104 -1.53839,-1.6999 -1.50516,-2.42375 0.48522,-10.568794 1.1752,-4.80914 2.78077,-9.38794 3.56794,-10.17511 1.79652,-1.79652 2.80455,-1.77306 19.28837,0.44884 14.267896,1.92322 15.494486,1.87963 16.439926,-0.58413 0.837059,-2.18133 -0.37403,-3.37875 -13.654786,-13.50066 -8.37012,-6.37924 -11.78519,-9.582913 -11.78519,-11.055613 0,-2.17743 6.08635,-13.99004 8.75379,-16.989659 1.88272,-2.11719 3.99046,-2.20948 7.842576,-0.34338 13.174367,6.382129 24.908877,10.761639 26.338677,9.830039 2.38634,-1.55484 1.42269,-5.11048 -2.70324,-9.974269 -2.0525,-2.41956 -4.86037,-6.086489 -6.23973,-8.148739 -1.37936,-2.06226 -3.74186,-5.2160016 -5.25,-7.0083276 -1.508148,-1.792325 -2.739408,-4.236747 -2.736148,-5.43204805 0.007,-2.42036995 10.961148,-14.21066435 14.141088,-15.21993735 2.33209,-0.740176 4.83347,0.783369 14.85298,9.0466614 10.15111,8.371824 12.50571,9.791659 14.95104,9.015541 1.12693,-0.357673 2.04896,-1.142098 2.04896,-1.743166 0,-0.60106705 -2.69264,-7.753126 -5.98364,-15.8934624 -3.291,-8.140338 -5.71546,-15.49947 -5.38769,-16.353629 0.5052,-1.316524 4.8234,-4.139169 15.58745,-10.188923 3.58455,-2.014637 3.40147,-2.194686 17.85058,17.554872 4.293573,5.868583 6.123223,7.608768 8.000003,7.608768 2.26293,0 2.42825,-0.350107 2.36111,-5.000001 -0.0397,-2.75 -0.76199,-10.150771 -1.60507,-16.446157 -0.84309,-6.295386 -1.32153,-12.254431 -1.06319,-13.242321 0.28931,-1.106324 2.05795,-2.202254 4.6050703,-2.853504 2.27447,-0.58154 6.12804,-1.71 8.56353,-2.50768 2.4354704,-0.79769 5.2545801,-1.45034 6.2646901,-1.45034 2.18786,0 5.1767796,4.60977 7.4564696,11.500002 2.4245,7.327927 7.92992,19.121918 9.33001,19.987221 2.88303,1.781811 4.65978,-3.98204 7.08596,-22.987221 1.53313,-12.009512 2.03925,-12.500002 12.89858,-12.500002 5.48054,0 9.29975,0.47227 10.41519,1.2879 1.68144,1.2295 2.57574,5.95514 5.2882,27.943788 0.73412,5.951143 2.57843,7.760937 5.35151,5.251339 1.08968,-0.98615 1.98124,-2.220404 1.98124,-2.742786 0,-0.522382 1.05883,-3.05784 2.35292,-5.634351 1.29411,-2.576511 2.91886,-6.466863 3.61052,-8.645227 2.09585,-6.600651 5.27741,-12.402333 7.12239,-12.987903 1.97394,-0.6265 18.58269,3.79576 20.15285,5.36591 0.69806,0.698074 0.46337,5.25885 -0.73805,14.342444 -0.96888,7.325388 -1.81538,15.118888 -1.88112,17.318888 -0.10825,3.623116 0.11408,4.000001 2.35952,4.000001 2.00794,0 4.255304,-2.375318 11.826614,-12.500001 10.46457,-13.993669 11.87786,-14.830752 18.03249,-10.680622 2.01403,1.358076 5.57437,3.647438 7.91187,5.087471 4.88574,3.009885 5.14524,4.372574 2.14437,11.260246 -7.89963,18.1314374 -9.8176,23.83539035 -8.46873,25.1856854 2.08488,2.087088 4.49084,0.804156 16.6848,-8.896839 6.19159,-4.9257674 12.13979,-8.9559404 13.21823,-8.9559404 2.30608,0 15.67133,13.0227864 15.67133,15.26979235 0,1.59633205 -6.00099,10.04288905 -14.27915,20.09824765 -3.54896,4.310879 -4.74997,6.566469 -4.52587,8.499999 0.50421,4.35064 2.40037,3.85514 26.92325,-7.035509 5.5233,-2.45291 8.21611,-1.85381 9.89593,2.201629 1.50827,3.64128 0.72594,4.78374 -5.849,8.54153 -2.56583,1.46646 -10.99508,6.4544 -18.73167,11.084323 -8.88217,5.3155 -14.66143,8.18975 -15.68067,7.79863 -0.88779,-0.34068 -3.85427,-3.84574 -6.5922,-7.78903 -8.81072,-12.689663 -26.83164,-29.685631 -37.69195,-35.5482016 -2.18276,-1.178295 -4.64367,-2.568257 -5.46867,-3.088805 -3.370764,-2.126834 -16.920184,-8.009812 -23.000004,-9.98629 -6.83109,-2.220706 -19.59307,-4.442101 -31.70031,-5.5178604 -11.88488,-1.056003 -34.82452,2.1999604 -46.7996893,6.6425744 -14.5752507,5.407206 -25.2442137,11.32323 -37.0000037,20.5167916 -10.33309,8.080948 -10.87953,8.590178 -18.07517,16.843778 -11.73115,13.455933 -20.07375,28.380503 -26.25464,46.968407 -4.25895,12.80799 -6.38314,33.64335 -5.04659,49.5 0.94418,11.2018 3.39185,24.8424 5.15016,28.70147 0.92931,2.03964 0.61995,2.81687 -2.35184,5.90866 -6.303748,6.5583 -10.439507,8.26408 -24.025293,9.90916 -6.81815,0.8256 -13.56017,1.74101 -14.98229,2.03426 -1.66937,0.34423 -3.32396,-0.10235 -4.66904,-1.26019 z m 24.57556,-10.95917 c 2.501466,-0.33724 5.600356,-1.65918 7.359626,-3.1395 2.73142,-2.29834 2.989,-2.99883 2.54642,-6.92523 -0.2708,-2.40254 -0.68629,-4.5622 -0.92333,-4.79923 -0.57013,-0.57012 -14.775226,4.57728 -22.125766,8.01754 -6.29804,2.94766 -7.63619,4.65252 -5.58843,7.11991 1.32363,1.59489 5.30392,1.53677 18.73148,-0.27349 z m 5.972966,-44.58419 c -0.26508,-6.54085 -0.48944,-7.23633 -2.29382,-7.11021 -8.636056,0.60363 -23.444026,2.76147 -25.426156,3.70514 -6.40168,3.04778 -1.67944,6.37826 11.08365,7.81702 5.13839,0.57923 10.24252,1.4243 11.34251,1.87792 5.095596,2.10134 5.609136,1.49117 5.293816,-6.28987 z m 4.69306,-36.35282 c 1.163349,-4.00178 1.317649,-5.92779 0.549109,-6.85382 -0.640639,-0.77194 -4.768389,-1.5646 -10.302455,-1.97842 -5.07844,-0.37974 -10.91915,-1.129054 -12.97935,-1.665114 -4.62297,-1.2029 -8.0237,0.26626 -7.56486,3.268114 0.22315,1.45999 2.42357,2.95686 7.81068,5.31333 13.306266,5.82054 19.484556,8.22279 20.184416,7.84814 0.37643,-0.2015 1.41254,-2.87101 2.30246,-5.93223 z m 12.365507,-31.658324 c 1.10852,-1.79363 2.48885,-4.50618 3.06741,-6.02789 0.95688,-2.51682 0.80477,-2.86473 -1.68395,-3.851573 -1.50471,-0.59665 -3.96685,-1.73071 -5.47141,-2.52012 -3.30549,-1.73433 -15.723897,-6.43373 -17.626033,-6.67009 -1.80756,-0.2246 -3.60835,2.66374 -2.86633,4.59741 0.7735,2.01574 20.001963,17.545393 21.896373,17.684363 0.36763,0.027 1.57541,-1.41847 2.68394,-3.2121 z m 23.30123,-31.905252 c 2.1155,-2.291509 3.84638,-4.497069 3.84638,-4.901219 0,-0.40416 -1.4625,-1.64671 -3.25,-2.76122 -1.78749,-1.11451 -6.76965,-4.7857586 -11.07145,-8.1583376 -4.30179,-3.37257805 -8.57679,-5.98806 -9.5,-5.812181 -2.87385,0.547496 -2.41544,4.24634 1.1903,9.604449 4.2298,6.2854496 12.79827,16.1650076 14.03477,16.1822776 0.49699,0.007 2.63449,-1.86226 4.75,-4.153769 z M 150.01305,17.178155 c 8.46886,-10.1238296 11.94637,-15.5964836 11.26825,-17.73308965 -0.64312,-2.02627695 -5.50538,-2.99642895 -5.50538,-1.09846995 0,0.505142 -1.6875,1.94142595 -3.75,3.191742 -2.0625,1.250316 -6.04851,4.212018 -8.8578,6.581557 -2.8093,2.3695406 -5.59524,4.3082606 -6.19099,4.3082606 -0.59574,0 -1.38639,0.49062 -1.75699,1.09027 -0.87284,1.41228 6.43248,8.909728 8.68141,8.909728 0.94586,0 3.69603,-2.362499 6.1115,-5.249998 z M -26.679097,-2.0453386 c 5.756753,-3.373687 6.040263,-4.792973 1.85001,-9.2614314 -1.94187,-2.070791 -5.24543,-6.240077 -7.34124,-9.265077 -5.34955,-7.721291 -7.60499,-9.617324 -9.53499,-8.015567 -2.39787,1.990052 -1.83646,5.026804 2.98124,16.125694 2.475,5.7018524 4.5,10.9346504 4.5,11.62843935 0,1.96467905 2.9265,1.494554 7.54498,-1.21205795 z M 121.88057,-11.10372 c 4.95656,-11.099148 5.83264,-15.130849 3.74216,-17.221323 -1.80549,-1.805494 -4.16308,0.03498 -9.59511,7.490498 -2.71,3.719484 -6.11747,7.887699 -7.57219,9.262698 -3.95589,3.7391024 -3.42951,6.0583084 2.08488,9.1858184 2.60459,1.47719995 5.12021,2.58650295 5.59026,2.46511895 0.47006,-0.121384 3.05756,-5.15364895 5.75,-11.18281035 z M 9.6423764,-17.190863 c 2.8608896,-2.003849 2.4084696,-5.580178 -1.78533,-14.112822 -1.55928,-3.172489 -3.16865,-6.893162 -3.57636,-8.268162 -0.90415,-3.0491 -3.38157973,-6 -5.03730013,-6 -0.67241997,0 -1.79823997,0.69364 -2.50183997,1.541423 -1.04328,1.257081 -0.97304,3.424573 0.38079,11.75 0.91302,5.614717 1.6586,11.371077 1.65682,12.79191 -0.002,1.420834 0.29676997,2.883335 0.66343997,3.250001 1.2752204,1.275227 7.90298013,0.656396 10.19979013,-0.95235 z m 75.3038496,-3.880984 c 0.36868,-2.75 1.2378,-8.7273 1.9314,-13.282889 1.14145,-7.497124 1.0998,-8.444176 -0.43908,-9.983049 -1.26171,-1.261715 -2.1198,-1.435454 -3.32742,-0.67371 -1.77834,1.121751 -11.23695,21.832816 -11.29764,24.737922 -0.0467,2.236355 5.33508,4.759682 9.46243,4.436578 2.80005,-0.219198 3.04468,-0.568099 3.67031,-5.234852 z m -36.73747,-1.391326 c 0.79151,-1.28069 -2.52217,-25.366333 -3.69519,-26.858674 -1.57222,-2.000202 -4.7047,-1.445915 -5.6514,1 -1.67636,4.331039 -3.88576,24.18509 -2.83769,25.5 1.14012,1.4304 11.33641,1.730553 12.18428,0.358674 z M -76.696167,151.21022 c -0.85226,-2.86987 -2.02911,-9.28237 -2.61522,-14.25 -0.5861,-4.96763 -1.38333,-11.05706 -1.77159,-13.53206 -0.38826,-2.475 -0.39465,-6.75 -0.0142,-9.5 0.38042,-2.75 1.19371,-8.9258 1.80729,-13.724 4.93674,-38.605824 29.83574,-73.620117 66.190283,-93.0802826 7.5130003,-4.021621 25.27842,-9.872542 35.87554,-11.815366 9.45236,-1.732952 29.33314,-1.737332 38.5,-0.0085 3.85,0.726101 11.81776,2.829654 17.70612,4.67456095 20.77564,6.50929205 32.306694,13.82144265 50.293874,31.89276065 13.54409,13.607433 18.21126,20.363293 16.40248,23.743023 -1.1319,2.11497 -8.51154,6.11468 -10.22718,5.54305 -0.64641,-0.21538 -1.62529,-3.49958 -2.17529,-7.29824 -0.71869,-4.96371 -1.44469,-6.99129 -2.58076,-7.20756 -1.65035,-0.31418 -10.16667,4.54624 -22.91924,13.08045 -4.125,2.7605 -10.200004,6.69027 -13.500004,8.73282 -3.30001,2.04254 -9.98818,6.234474 -14.86264,9.315404 -10.60139,6.70067 -11.64903,6.51236 -14.54521,-2.61453 -1.08796,-3.428474 -3.39806,-10.058594 -5.13358,-14.733594 -4.15987,-11.20556 -4.52747,-13.02588 -2.84551,-14.09105 0.76281,-0.48308 8.68359,-0.88522 17.60173,-0.89364 19.0829,-0.018 18.28518,0.50176 18.28518,-11.914383 0,-6.91613 -0.26843,-8.17422 -1.93425,-9.06575 -1.12323,-0.60113 -9.31622,-1.03518 -19.53985,-1.03518 -15.63212,0 -18.04501,-0.22418 -21.5259,-2 -2.15618,-1.099999 -5.75617,-1.999999 -8,-1.999999 -2.24382,0 -5.84381,0.9 -8,1.999999 -3.49847,1.78479 -5.89377,2 -22.26015,2 -12.9309897,0 -18.6937497,0.35391 -19.5398397,1.2 -1.4924,1.4924 -1.62042,16.14592 -0.16482,18.865743 0.95836,1.7907 2.24301,1.93426 17.3088701,1.93426 12.5934996,0 16.7126596,0.32544 18.2148196,1.4391 1.64441,1.21911 1.75189,1.74911 0.70315,3.46718 -1.30683,2.14088 -6.02281,15.17995 -9.43758,26.093724 -1.11859,3.575 -2.45209,7.01469 -2.96337,7.64375 -0.51128,0.62906 -1.84417,4.44409 -2.96199,8.47784 -1.1178,4.03375 -2.38858,7.79406 -2.8239596,8.35625 -0.72544,0.93676 -3.81649,9.38214 -8.0602,22.02216 -1.81665973,5.41096 -1.50283973,5.1484 -21.9732404,18.38435 -5.202083,3.36361 -10.248743,6.11565 -11.214813,6.11565 -2.32813,0 -3.82374,-2.99246 -3.84052,-7.68426 -0.0178,-4.96007 -0.94557,-8.31574 -2.29924,-8.31574 -1.53536,0 -7.82271,4.39934 -17.86448,12.5 -18.52218,14.94177 -18.97412,15.09632 -21.29472,7.28206 z m 15.08458,-13.73789 c 2.13812,-1.6257 6.1375,-4.72292 8.8875,-6.88272 8.84678,-6.94807 12.70049,-9.16145 15.95099,-9.16145 3.84511,0 6.9655,2.70191 8.50396,7.36349 1.51332,4.58542 3.28458,5.07079 7.796223,2.13635 8.5164,-5.53918 11.8595903,-8.59284 13.8873203,-12.68458 3.53578,-7.13489 5.36152,-11.7828 5.36152,-13.64919 0,-0.97134 0.42418997,-2.19357 0.94264997,-2.71607 0.5184604,-0.5225 1.37875043,-2.75 1.91177013,-4.95 1.10181,-4.54774 2.7675,-9.40665 4.97076,-14.5 3.23024,-7.46746 4.0527296,-9.700294 5.7095996,-15.500004 0.94275,-3.3 2.1081,-6.78139 2.58965,-7.73643 1.77019,-3.51067 1.01377,-3.76357 -11.2563996,-3.76357 -18.9106904,0 -21.3079104,-2.41451 -21.3460504,-21.500003 -0.0205,-10.23426 -0.1612,-11.01891 -2.02199,-11.27162 -2.354353,-0.31974 -14.681343,9.34355 -21.775683,17.07025 -11.94809,13.013083 -23.087,33.427647 -27.66447,50.701377 -2.59514,9.79308 -3.47274,38.04789 -1.48314,47.75 0.65406,3.18946 4.28583,2.90577 9.0358,-0.70583 z M 78.951066,66.161706 c 2.02133,-1.22845 5.95833,-3.58355 8.74889,-5.23355 2.79057,-1.65 4.92543,-3.45 4.74415,-4 -0.36799,-1.11649 -16.84691,-1.91888 -20.52105,-0.9992 -2.10994,0.52813 -2.28299,0.97151 -1.67604,4.29407 0.69571,3.80837 3.01225,8.21786 4.30195,8.18868 0.39982,-0.009 2.38077,-1.02155 4.4021,-2.25 z m 32.184484,-18.98355 c 3.43469,-2.3375 7.0913,-4.73007 8.12581,-5.31683 4.03269,-2.287303 4.18173,-4.149613 0.62574,-7.818473 -4.22287,-4.3569 -16.90654,-13.152659 -17.75005,-12.30915 -0.34913,0.34913 -0.78655,7.17321 -0.97203,15.16461 -0.3261,14.048843 -0.27,14.529843 1.69419,14.529843 1.1173,0 4.84165,-1.9125 8.27634,-4.25 z m -78.766174,-35.803461 5.90654,-2.0534596 10.5,2.1086196 c 12.44023,2.49827 31.5,2.56557 31.5,0.11123 0,-0.85989 -2.47041,-2.0562996 -6.5,-3.1479206 -23.36928,-6.33075 -34.30516,-7.200908 -48.5,-3.859099 -26.12732973,6.1509996 -29.2415797,8.8940896 -10.09753,8.8940896 8.7981,0 12.58583,-0.45244 17.19099,-2.05346 z M 8.7759164,119.94921 c 0,-1.62933 4.5186996,-15.84591 6.0457996,-19.02105 0.52905,-1.1 3.59805,-9.66471 6.82001,-19.03269 6.41114,-18.640704 8.71857,-23.842224 10.17679,-22.940994 2.33974,1.44605 -0.78364,22.764944 -3.94861,26.951524 -0.42501,0.56219 -3.1547,7.89651 -6.06598,16.2985 -4.25684,12.28529 -5.83594,15.66277 -8.06499,17.25 -3.30025,2.34998 -4.9630196,2.51572 -4.9630196,0.49471 z m 44.6666796,-1.18772 c -0.36667,-0.36666 -0.66668,-4.10714 -0.66668,-8.31216 l 0,-7.6455 12.45439,-8.18784 c 6.84992,-4.5033 12.75568,-8.18783 13.12392,-8.18783 0.36822,0 3.25231,-1.6875 6.40906,-3.75 3.15677,-2.0625 9.65947,-6.225 14.45047,-9.25 4.791014,-3.025004 12.308034,-7.892224 16.704504,-10.816054 9.00673,-5.98983 10.40488,-5.86774 11.5038,1.00455 0.34553,2.16082 1.42391,4.91137 2.39639,6.11233 l 1.76815,2.18358 6.34465,-3.38179 c 3.48958,-1.85999 8.59467,-4.8414 11.34467,-6.62537 2.75,-1.78397 10.17501,-6.03818 16.5,-9.45381 6.325,-3.41562 12.4,-7.01368 13.5,-7.99567 1.10001,-0.98199 5.48535,-3.679463 9.74523,-5.994373 4.25987,-2.31491 8.0172,-4.649 8.34963,-5.18686 0.87403,-1.41423 18.40514,-9.8655 18.40514,-8.87262 0,0.45857 -2.74466,3.01454 -6.09924,5.67992 -3.35458,2.66539 -10.91615,8.89616 -16.80349,13.846163 -5.88734,4.95 -13.52337,11.025 -16.96895,13.5 -3.44558,2.475 -11.15539,8.325 -17.13291,13 -12.1204,9.479324 -26.29928,20.011714 -29.77591,22.118224 -1.96508,1.19065 -2.41251,1.1743 -3.23469,-0.11822 -0.52481,-0.825 -0.96722,-2.85 -0.98314,-4.5 -0.0449,-4.64766 -1.05462,-7.38203 -2.94791,-7.98294 -2.13948,-0.67904 -12.57499,4.82362 -25.687624,13.54514 -5.42637,3.6092 -12.34113,8.16108 -15.36613,10.11528 -26.68342,17.23789 -25.76213,16.72705 -27.33333,15.15585 z m -28.24507,-9.67704 c -0.53486,-1.39382 2.96591,-11.21335 4.77467,-13.39278 1.78937,-2.15605 2.80372,-0.32069 2.80372,5.073 0,3.10466 -0.63056,6.11873 -1.55669,7.44098 -1.72346,2.46059 -5.21896,2.97072 -6.0217,0.8788 z m 31.24712,-22.3443 c -2.87136,-5.58103 -5.66873,-16.643364 -5.66873,-22.417334 0,-8.33038 2.09213,-7.82168 5.57403,1.35534 1.51292,3.9875 3.86435,10.139444 5.2254,13.670984 2.66777,6.92212 2.2826,9.31239 -1.59382,9.89101 -1.4577,0.21758 -2.5279,-0.53888 -3.53688,-2.5 z M -3.0240837,39.228153 c -0.66,-0.66 -1.2,-2.82 -1.2,-4.8 0,-1.98 0.54,-4.14 1.2,-4.8 1.66924,-1.66924 27.9307697,-1.66924 29.6000097,0 1.82549,1.82549 1.53969,9.45567 -0.3818,10.19301 -3.06286,1.17534 -27.9550697,0.67013 -29.2182097,-0.59301 z m 59.3714297,-0.37143 c -2.00134,-2.00134 -2.00737,-5.36116 -0.0147,-8.20606 1.48025,-2.11335 2.23169,-2.22251 15.3,-2.22251 9.3559,0 14.12639,0.38309 14.9433,1.2 0.66001,0.66 1.2,2.82 1.2,4.8 0,1.98 -0.54,4.14 -1.2,4.8 -0.81679,0.81679 -5.58413,1.2 -14.92856,1.2 -11.1472,0 -14.02405,-0.29548 -15.30001,-1.57143 z M 234.31821,11.496575 c -0.67465,-1.0916 3.24322,-4.0684206 5.35453,-4.0684206 1.02993,0 0.76932,0.72648 -0.89682,2.500001 -2.51936,2.6817396 -3.54633,3.0430696 -4.45771,1.5684196 z"
       id="path3338"
       inkscape:connector-curvature="0"
       inkscape:export-xdpi="200"
       inkscape:export-ydpi="200" />
    <path
       style="fill:#000000;fill-opacity:1;fill-rule:nonzero;stroke:none;stroke-width:0;stroke-miterlimit:4;stroke-dasharray:none;stroke-opacity:1"
       d="m 92.201735,288.97337 c 1.343133,-1.16567 5.555685,-4.54344 9.361225,-7.50614 3.80554,-2.96271 10.3991,-8.37844 14.65236,-12.03497 4.25325,-3.65653 12.12889,-9.92853 17.50142,-13.93779 5.37253,-4.00925 16.54495,-12.43692 24.8276,-18.72815 15.90712,-12.08252 18.30426,-13.67245 19.49991,-12.9335 0.40909,0.25284 1.35013,2.55921 2.0912,5.12527 1.70508,5.9041 3.29683,7.77814 6.02497,7.09342 3.29627,-0.82731 19.76875,-10.86897 40.79107,-24.86633 14.5919,-9.71578 20.1729,-12.97138 22.23652,-12.97138 1.65983,0 2.15457,1.81996 2.15457,7.9258 0,5.1378 -0.12289,5.46698 -3.09005,8.27713 -4.92029,4.65993 -65.00711,43.22051 -67.34814,43.22051 -1.52785,0 -2.82358,-1.88673 -2.82358,-4.11143 0,-3.77694 -1.65901,-7.2616 -3.7012,-7.77416 -3.78725,-0.95054 -5.98362,0.21071 -51.65214,27.30912 -27.612525,16.38451 -28.422488,16.84272 -30.932744,17.49953 -1.982486,0.51872 -1.971974,0.47773 0.407009,-1.58693 z"
       id="path5923"
       inkscape:connector-curvature="0"
       transform="translate(-220.82276,-78.571809)" />
    <path
       style="fill:#000000;fill-opacity:1;fill-rule:nonzero;stroke:none;stroke-width:0;stroke-miterlimit:4;stroke-dasharray:none;stroke-opacity:1"
       d="m 274.67782,196.8571 c -0.29848,-0.29847 -0.54268,-3.87378 -0.54268,-7.94513 l 0,-7.40245 10.78576,-7.03851 c 5.93217,-3.87117 13.53307,-8.65325 16.89091,-10.62684 3.35783,-1.97359 13.83922,-8.5817 23.29199,-14.68469 9.45276,-6.103 18.12935,-11.33292 19.28132,-11.62204 1.92508,-0.48317 2.1684,-0.23979 3.00859,3.00918 1.52035,5.87915 1.63904,6.1743 3.36529,8.36888 l 1.66696,2.11919 6.23618,-3.42848 c 3.42991,-1.88566 8.06774,-4.59167 10.30629,-6.01336 2.23855,-1.42169 9.19842,-5.43979 15.46637,-8.92912 6.26796,-3.48933 12.86151,-7.33805 14.65236,-8.55273 1.79084,-1.21467 6.55286,-4.13682 10.58225,-6.49367 4.0294,-2.35685 7.87564,-4.75377 8.54721,-5.32648 1.66393,-1.41901 16.30387,-8.75119 16.6941,-8.36097 0.43409,0.43409 -29.32493,24.79694 -43.14974,35.32543 -40.32813,30.71251 -43.21385,32.75766 -44.46119,31.51031 -0.46496,-0.46496 -1.02898,-2.44654 -1.25338,-4.40353 -0.67643,-5.89911 -1.8073,-8.03713 -4.24289,-8.02165 -3.17392,0.0202 -13.07256,5.63022 -33.9451,19.23836 -30.17801,19.67497 -31.82628,20.63263 -33.1806,19.2783 z"
       id="path5925"
       inkscape:connector-curvature="0"
       transform="translate(-220.82276,-78.571809)" />
    <path
       style="fill:#000000;fill-opacity:1;fill-rule:nonzero;stroke:none;stroke-width:0;stroke-miterlimit:4;stroke-dasharray:none;stroke-opacity:1"
       d="m 277.88294,165.44951 c -3.33617,-5.20541 -6.96872,-22.30358 -5.60172,-26.367 l 0.7829,-2.3272 1.78969,3.49215 c 2.1732,4.24045 9.04956,22.46929 9.04956,23.98985 0,3.16768 -4.22229,4.01783 -6.02043,1.2122 z"
       id="path5927"
       inkscape:connector-curvature="0"
       transform="translate(-220.82276,-78.571809)" />
    <path
       style="fill:#000000;fill-opacity:1;fill-rule:nonzero;stroke:none;stroke-width:0;stroke-miterlimit:4;stroke-dasharray:none;stroke-opacity:1"
       d="m 218.9853,117.60049 c -1.51119,-0.60743 -1.83154,-1.36406 -1.83154,-4.32584 0,-5.55635 0.68138,-5.81242 15.46637,-5.81242 9.6099,0 13.12092,0.27621 14.12724,1.11139 1.58823,1.31811 1.83672,7.41502 0.36231,8.88943 -1.17277,1.17277 -25.25581,1.29046 -28.12438,0.13744 z"
       id="path5929"
       inkscape:connector-curvature="0"
       transform="translate(-220.82276,-78.571809)" />
    <path
       style="fill:#000000;fill-opacity:1;fill-rule:nonzero;stroke:none;stroke-width:0;stroke-miterlimit:4;stroke-dasharray:none;stroke-opacity:1"
       d="m 145.95643,232.96875 c -1.54727,-2.36143 -3.192,-10.41519 -4.98273,-24.39901 -1.37782,-10.75933 -1.37642,-11.68654 0.0344,-22.79255 4.02553,-31.69011 14.08281,-53.64958 34.07975,-74.41111 18.37117,-19.073594 35.85798,-29.00281 63.23046,-35.90299 7.86684,-1.983108 9.84315,-2.151535 24.8276,-2.115876 16.032,0.03815 16.44807,0.08324 27.26966,2.955076 18.32979,4.864366 30.36754,10.260565 41.60841,18.651942 8.12257,6.063548 27.74401,25.492368 31.46375,31.154878 3.7643,5.73034 3.53792,8.01143 -1.06265,10.70754 -5.87589,3.44351 -6.24624,3.26171 -7.76159,-3.81001 -1.47376,-6.87765 -1.99058,-8.05461 -3.53691,-8.05461 -1.81285,0 -9.58063,4.48445 -25.05118,14.46242 -20.83639,13.43874 -29.06836,18.54123 -32.62328,20.22115 -2.80512,1.3256 -3.17975,1.33896 -4.36317,0.15554 -1.50395,-1.50395 -11.6977,-30.06327 -11.6977,-32.77284 0,-1.70089 0.45659,-1.86051 6.71567,-2.34775 3.69361,-0.28753 11.03644,-0.52498 16.31739,-0.52766 9.10587,-0.005 9.70492,-0.10807 11.59978,-2.00293 1.82322,-1.82321 1.99805,-2.63446 1.99805,-9.27104 0,-11.24382 1.00165,-10.71016 -21.1718,-11.27987 -15.46793,-0.39743 -18.93956,-0.71666 -22.37825,-2.057815 -5.31562,-2.07319 -9.39486,-2.068622 -15.87339,0.01777 -4.51467,1.453935 -7.91107,1.757315 -23.14477,2.067385 -16.00794,0.32582 -17.96452,0.51499 -18.92597,1.82985 -1.5541,2.12536 -1.46499,16.5128 0.11626,18.77035 1.12063,1.59993 2.12362,1.71941 17.55034,2.09065 20.15488,0.48503 19.91253,0.36131 16.64379,8.49679 -1.23293,3.06863 -4.01104,10.70765 -6.17357,16.9756 -12.98418,37.63375 -19.37542,54.36368 -21.69803,56.79741 -2.35294,2.46553 -19.31311,13.78887 -25.82498,17.24186 l -4.06856,2.15741 -1.42608,-1.76114 c -0.78434,-0.96863 -1.43482,-3.09422 -1.4455,-4.72353 -0.0211,-3.21358 -1.16848,-8.89875 -1.95467,-9.68494 -0.92319,-0.92318 -5.77422,2.0373 -14.3063,8.73086 -12.93065,10.14431 -19.79015,15.20249 -21.3664,15.75554 -0.94338,0.331 -1.8256,-0.11532 -2.61779,-1.32435 z m 20.63466,-22.13634 c 11.18999,-8.45187 14.20086,-10.17655 17.76581,-10.17655 3.21351,0 5.06521,1.52674 7.53685,6.21415 2.80472,5.31911 4.8982,5.5516 11.18756,1.24243 2.59117,-1.77534 6.06455,-4.63724 7.71861,-6.35976 2.96563,-3.08838 7.51531,-11.71784 8.85942,-16.80382 1.29218,-4.88945 7.01869,-21.31662 9.28045,-26.62202 3.01167,-7.06452 7.92653,-22.6631 7.40609,-23.50519 -0.22831,-0.36941 -5.54582,-0.87476 -11.81671,-1.12301 -18.7444,-0.74203 -20.39078,-2.32342 -21.03379,-20.2034 -0.48282,-13.42564 -0.87634,-14.145268 -6.06583,-11.09272 -5.36646,3.15663 -15.6186,12.25246 -20.63268,18.30556 -12.57217,15.17739 -22.59502,34.93783 -26.10198,51.46106 -1.96265,9.2471 -2.21469,43.66769 -0.33634,45.93234 2.00806,2.42104 5.43486,0.88649 16.23254,-7.26907 z m 138.43893,-68.84223 c 4.49793,-2.71721 8.17806,-5.41874 8.17806,-6.0034 0,-1.4647 -3.74511,-2.08053 -12.65248,-2.08053 -8.96273,0 -10.14007,0.34701 -10.14007,2.98876 0,3.39216 3.27451,10.03555 4.9465,10.03555 0.81946,0 5.17006,-2.22317 9.66799,-4.94038 z m 22.65397,-13.31012 c 7.35026,-3.7715 15.22055,-9.73966 15.50744,-11.75953 0.33118,-2.33169 -2.30988,-5.25259 -9.63286,-10.6535 -6.22587,-4.59176 -10.32806,-6.805436 -10.89909,-5.8815 -0.22507,0.36418 -0.66681,6.76144 -0.98164,14.21615 -0.44162,10.45709 -0.3359,13.83898 0.46271,14.80125 1.3019,1.5687 1.00093,1.60794 5.54344,-0.72287 z m -73.5595,-38.640239 4.81696,-1.724806 8.44314,1.629358 c 15.55689,3.00217 33.20619,2.998904 33.20619,-0.0061 0,-1.52014 -5.15565,-3.378991 -17.11793,-6.171812 -8.12611,-1.897232 -11.63766,-2.282548 -21.141,-2.319803 -10.36957,-0.04065 -12.34931,0.20146 -21.97477,2.687399 -12.53479,3.237322 -16.69116,4.79465 -16.69116,6.253911 0,1.616468 2.59271,1.904607 14.65235,1.628377 8.67497,-0.198702 12.0037,-0.61495 15.80622,-1.976519 z"
       id="path5931"
       inkscape:connector-curvature="0"
       transform="translate(-220.82276,-78.571809)" />
    <path
       style="fill:#000000;fill-opacity:1;fill-rule:nonzero;stroke:none;stroke-width:0;stroke-miterlimit:4;stroke-dasharray:none;stroke-opacity:1"
       d="m 261.11082,327.66058 c -1.91951,-1.21274 -2.61124,-42.29136 -2.11709,-125.72446 0.45974,-77.6233 0.33247,-75.47652 4.39802,-74.18616 1.41654,0.44959 1.72259,1.46336 2.17554,7.20633 0.28991,3.67573 0.41315,48.11144 0.27387,98.74603 -0.21058,76.55834 -0.44138,92.28954 -1.37043,93.40876 -1.28382,1.54661 -1.67932,1.61129 -3.35991,0.5495 z"
       id="path5933"
       inkscape:connector-curvature="0"
       transform="translate(-220.82276,-78.571809)" />
    <path
       style="fill:#000000;fill-opacity:1;fill-rule:nonzero;stroke:none;stroke-width:0;stroke-miterlimit:4;stroke-dasharray:none;stroke-opacity:1"
       d="m 230.17807,198.39803 c 0,-2.03346 3.52661,-12.72218 11.20666,-33.96605 7.4022,-20.47527 9.85987,-26.45564 10.87212,-26.45564 1.97834,0 -0.20301,17.67349 -2.97358,24.09216 -0.75436,1.74763 -3.69776,9.53702 -6.54091,17.30976 -5.77032,15.7752 -6.65031,17.44715 -10.12989,19.24652 -2.27378,1.17581 -2.4344,1.16085 -2.4344,-0.22675 z"
       id="path5935"
       inkscape:connector-curvature="0"
       transform="translate(-220.82276,-78.571809)" />
    <path
       style="fill:#000000;fill-opacity:1;fill-rule:nonzero;stroke:none;stroke-width:0;stroke-miterlimit:4;stroke-dasharray:none;stroke-opacity:1"
       d="m 246.71245,185.56775 c 0.25686,-1.5828 1.41282,-4.94373 2.56881,-7.46875 2.71566,-5.93177 4.02391,-4.95319 3.53991,2.64788 -0.36562,5.74202 -1.63558,7.69869 -4.99676,7.69869 -1.35292,0 -1.5121,-0.41199 -1.11196,-2.87782 z"
       id="path5937"
       inkscape:connector-curvature="0"
       transform="translate(-220.82276,-78.571809)" />
    <path
       style="fill:#000000;fill-opacity:1;fill-rule:nonzero;stroke:none;stroke-width:0;stroke-miterlimit:4;stroke-dasharray:none;stroke-opacity:1"
       d="m 272.75476,318.19236 c -0.91161,-3.27606 -0.66559,-102.55686 0.26386,-106.48283 0.59593,-2.51717 1.59688,-3.77142 4.73632,-5.93492 2.18939,-1.50878 4.55884,-2.6319 5.26545,-2.49581 2.44562,0.47098 4.86221,6.64414 27.32308,69.79673 6.51045,18.30527 10.17922,29.76401 10.02578,31.31377 -0.31113,3.1424 -3.35533,5.2108 -12.66907,8.60808 -10.01386,3.65266 -21.56957,6.52965 -28.43326,7.07892 l -5.85748,0.46876 -0.65468,-2.3527 z m 18.06778,-8.48969 c 8.38472,-1.90432 13.09188,-3.60887 16.89091,-6.11653 3.38284,-2.23293 3.89745,-4.50897 1.89501,-8.38127 -0.63666,-1.23116 -1.96759,-4.78448 -2.95762,-7.89626 -1.53535,-4.82577 -9.1427,-26.06907 -18.78765,-52.46392 -2.59462,-7.10059 -4.24858,-9.76824 -6.05635,-9.76824 -0.56661,0 -1.23838,1.00735 -1.49284,2.23856 -0.25446,1.2312 -0.54516,20.00453 -0.64599,41.7185 -0.19275,41.50574 0.003,44.0574 3.28027,42.70875 0.74915,-0.30832 4.29257,-1.22613 7.87426,-2.03959 z"
       id="path5939"
       inkscape:connector-curvature="0"
       transform="translate(-220.82276,-78.571809)" />
    <path
       style="fill:#000000;fill-opacity:1;fill-rule:nonzero;stroke:none;stroke-width:0;stroke-miterlimit:4;stroke-dasharray:none;stroke-opacity:1"
       d="m 252.68827,376.08548 c -1.45698,-1.45699 -1.79553,-2.96044 -3.39299,-15.06774 -1.69715,-12.86276 -2.9633,-17.96722 -4.7231,-19.04093 -2.675,-1.63209 -5.2242,2.7074 -11.9027,20.26196 -1.36263,3.58169 -3.31086,7.54735 -4.32941,8.81258 l -1.85189,2.30042 -5.31855,-1.23346 c -2.92519,-0.67839 -7.40644,-2.01463 -9.95833,-2.96942 -5.58587,-2.08994 -5.42569,-0.88594 -2.84021,-21.34947 1.70242,-13.47433 1.73371,-14.52999 0.46821,-15.79549 -1.2655,-1.2655 -1.4987,-1.26273 -3.48933,0.0416 -1.17327,0.76876 -5.31621,5.476 -9.20655,10.46053 -8.75004,11.21108 -12.30419,15.25561 -13.40595,15.25561 -1.57185,0 -15.87909,-8.95511 -16.37597,-10.24996 -0.98912,-2.5776 -0.38717,-4.7391 4.85941,-17.44914 2.94271,-7.12885 5.23214,-13.7948 5.08762,-14.81326 -0.19925,-1.40414 -0.87299,-1.91118 -2.78739,-2.09777 -2.10625,-0.20528 -4.23915,1.04333 -12.87038,7.53441 -5.69016,4.27925 -11.4404,8.34653 -12.77831,9.03839 -2.26743,1.17253 -2.62086,1.14157 -5.20613,-0.45622 -3.07682,-1.90159 -9.94877,-9.21616 -11.17151,-11.8911 -1.07957,-2.36171 0.12845,-4.46153 9.46883,-16.45912 8.35823,-10.73601 9.757,-13.57814 7.49618,-15.23129 -1.87572,-1.37156 -4.36722,-0.68326 -18.88625,5.21745 -6.75585,2.74566 -12.83475,4.99211 -13.50866,4.99211 -3.38092,0 -5.18862,-5.99904 -2.49516,-8.28045 3.07095,-2.60114 36.09566,-21.83827 37.49013,-21.83827 1.69,0 4.00371,2.37595 9.116,9.36122 1.96598,2.68627 7.62305,9.04536 12.57127,14.13133 8.95189,9.20109 14.73413,13.95235 16.97987,13.95235 1.55048,0 3.3682,-4.3644 12.54411,-30.11873 9.11264,-25.57673 10.21602,-27.67667 14.5422,-27.67667 1.83139,0 1.38244,2.575 -2.08784,11.97504 -1.78326,4.83035 -6.15071,16.84126 -9.70545,26.6909 -3.55474,9.84964 -6.9311,19.08059 -7.50303,20.51321 -0.92187,2.30917 -0.85971,2.80395 0.54772,4.35976 1.81988,2.01174 15.13101,8.54237 23.61,11.5834 3.15811,1.13266 11.03025,3.19126 17.49366,4.57464 10.99734,2.3538 11.91931,2.69825 14.36348,5.36621 2.53984,2.77239 2.77988,2.85097 8.70897,2.85097 5.91771,0 6.2051,-0.0934 9.76568,-3.1751 3.10618,-2.68837 4.57998,-3.32301 9.61424,-4.13997 8.07688,-1.31072 14.34389,-2.88646 23.04011,-5.79303 8.61594,-2.87974 22.32845,-9.53544 23.458,-11.3859 0.58312,-0.9553 -1.68233,-8.10001 -8.6467,-27.26966 -21.14238,-58.1951 -28.24262,-78.65246 -28.24262,-81.37331 0,-3.14278 1.68388,-4.44692 3.64271,-2.82123 1.42591,1.1834 1.49505,1.36499 17.20846,45.195 20.49559,57.16914 22.13054,61.45849 23.42578,61.45849 1.56658,0 11.61657,-8.51482 19.62359,-16.62602 15.81535,-16.02112 28.16225,-39.45899 33.48026,-63.55492 1.16407,-5.27441 1.43078,-10.30275 1.40324,-26.45564 -0.0299,-17.52843 -0.25266,-20.92922 -1.83967,-28.08368 -3.25938,-14.69376 -3.26326,-14.60258 0.78355,-18.45222 6.23477,-5.93099 15.09653,-8.47785 32.64873,-9.38321 l 9.49472,-0.48975 1.63478,5.29276 c 2.16166,6.99866 3.54456,14.65919 2.78092,15.40479 -0.33693,0.32896 -7.023,3.46539 -14.85794,6.96984 -13.86114,6.19989 -14.25213,6.44168 -14.49711,8.96503 -0.23235,2.39315 -0.0125,2.65434 2.84907,3.38442 1.70546,0.43513 8.046,1.57327 14.0901,2.52919 13.75885,2.17609 15.97855,2.86472 16.59044,5.14692 0.76202,2.84212 0.58171,15.73163 -0.25068,17.921 -0.41506,1.09169 -1.60557,2.19819 -2.64556,2.45888 -1.60292,0.40179 -30.10713,4.61643 -31.22158,4.61643 -1.11496,0 -0.14658,4.22511 1.27108,5.54587 0.90867,0.84656 7.71632,4.20826 15.12811,7.47045 7.41179,3.2622 13.64981,6.38426 13.86227,6.93792 0.61373,1.59936 -2.86061,15.25886 -4.61487,18.1435 -1.80233,2.9637 -1.10145,2.94622 -19.45368,0.4851 -11.90687,-1.59678 -15.27295,-1.5078 -16.31064,0.43113 -0.46186,0.86299 -0.61195,2.1627 -0.33353,2.88824 0.27842,0.72555 4.58124,4.46208 9.56182,8.3034 11.83801,9.1302 15.16074,12.35221 15.16074,14.70121 0,3.98124 -7.36032,16.26839 -10.16718,16.97287 -1.13607,0.28513 -5.93561,-1.25494 -13.1104,-4.20687 -14.64572,-6.0257 -17.77908,-6.98585 -18.95623,-5.8087 -2.31087,2.31087 -0.88327,5.36918 8.04498,17.23457 4.92482,6.54495 8.95422,12.58187 8.95422,13.4154 0,1.98226 -11.01923,13.76507 -13.44161,14.37305 -2.45232,0.61549 -4.13946,-0.34089 -13.63572,-7.72965 -11.9875,-9.32713 -12.8207,-9.84709 -15.77908,-9.84709 -2.40911,0 -2.72869,0.25264 -2.72869,2.15713 0,1.18642 2.381,8.13238 5.29113,15.43547 2.91012,7.30308 5.29112,14.12215 5.29112,15.15348 0,1.40463 -1.28565,2.71447 -5.12373,5.2201 -7.09062,4.62898 -11.67205,6.8684 -13.00502,6.35689 -0.62068,-0.23818 -3.29761,-3.23617 -5.94874,-6.66221 -12.77853,-16.51368 -14.58423,-18.52783 -16.84495,-18.78942 -1.5296,-0.17699 -2.40027,0.18606 -2.77251,1.1561 -0.29846,0.77777 0.3207,8.54657 1.37589,17.26399 l 1.91854,15.84987 -1.85358,1.50094 c -1.95893,1.58624 -11.50162,4.70918 -16.43634,5.37894 -2.63678,0.35787 -3.09659,0.12377 -4.59336,-2.33863 -0.91479,-1.50498 -3.02487,-6.39941 -4.68906,-10.87652 -6.23024,-16.76097 -10.25098,-21.68444 -12.62,-15.45344 -0.39519,1.03941 -1.67646,8.05528 -2.84727,15.59081 -1.17082,7.53553 -2.66488,14.52516 -3.32014,15.53251 -1.1153,1.71458 -1.75828,1.83154 -10.06869,1.83154 -6.77834,0 -9.16403,-0.28672 -10.08997,-1.21265 z m 11.35327,-9.17856 c 0.49261,-0.32893 1.31812,-1.40063 1.83447,-2.38156 1.18087,-2.24337 3.00839,-17.44797 2.31449,-19.25623 -0.75853,-1.97672 -10.15535,-1.94907 -10.91561,0.0321 -0.29082,0.75785 -0.10037,5.21144 0.42322,9.89686 1.16216,10.39989 3.0593,13.90169 6.34343,11.70883 l 0,3e-5 z m -39.82852,-8.41932 c 3.50967,-7.16184 7.85695,-18.66649 7.92229,-20.96555 0.0956,-3.36255 -2.44126,-5.52467 -7.3742,-6.285 -4.43882,-0.68418 -4.73944,-0.0691 -6.79153,13.89508 -2.0131,13.6988 -2.01246,13.87495 0.0579,15.94528 1.51455,1.51455 1.86951,1.56815 3.45959,0.52243 0.97453,-0.6409 2.20123,-2.04141 2.72599,-3.11224 l -1e-5,0 z m 82.07168,3.64015 c 2.59181,-0.99457 2.81265,-3.88246 1.18194,-15.45672 -1.74131,-12.35931 -2.18517,-14.26621 -3.52599,-15.14805 -2.10969,-1.38753 -10.44943,1.4348 -11.3762,3.84992 -0.26973,0.70292 0.55732,3.73852 1.83789,6.74578 1.28057,3.00725 3.34201,8.11192 4.58097,11.34371 1.23896,3.23179 2.94595,6.62015 3.79331,7.52968 1.73614,1.86352 1.66845,1.84161 3.50808,1.13568 z M 186.21429,340.39742 c 8.38957,-10.22186 13.91914,-17.82336 13.61939,-18.7226 -0.51248,-1.53744 -10.23217,-6.39318 -11.76006,-5.87505 -1.31263,0.44512 -4.06731,6.45289 -10.19858,22.24245 l -1.66746,4.29415 1.89253,2.0145 c 1.04089,1.10799 2.19031,2.01451 2.55425,2.01451 0.36395,0 2.86592,-2.68558 5.55993,-5.96796 z m 160.20579,4.17712 c 1.72839,-1.72838 1.02048,-6.58359 -1.99395,-13.67553 -1.61755,-3.80554 -3.57169,-8.66633 -4.34255,-10.80176 -0.77085,-2.13542 -1.62642,-4.10747 -1.90127,-4.38232 -0.69419,-0.69419 -8.93873,3.43775 -10.66459,5.3448 -1.07046,1.18283 -1.21382,1.93972 -0.58867,3.10783 0.68636,1.28246 11.07563,14.91235 15.21379,19.95927 1.36272,1.66198 2.90188,1.82308 4.27724,0.44771 z m 34.46496,-26.64968 1.92172,-1.57788 -2.32986,-4.51106 c -2.51513,-4.86979 -10.18821,-14.41374 -13.6378,-16.963 -1.97867,-1.46226 -2.30297,-1.4838 -4.58365,-0.30441 -2.36051,1.22067 -6.71835,5.71086 -6.71835,6.9224 0,0.32214 2.81117,2.76661 6.24705,5.43217 3.43587,2.66555 8.44108,6.58644 11.12267,8.71306 2.6816,2.12663 5.14132,3.8666 5.46606,3.8666 0.32474,0 1.45521,-0.71005 2.51216,-1.57788 z m -229.58551,-1.79534 c 10.10952,-7.22341 18.64109,-14.06453 18.64109,-14.94754 0,-1.10994 -7.65762,-8.54189 -8.80127,-8.54189 -1.11298,0 -8.23005,7.80697 -13.42358,14.72481 -4.26945,5.68697 -5.62378,9.25248 -4.09512,10.78113 1.2112,1.21121 4.29488,0.40141 7.67888,-2.01651 z m 255.86655,-33.18995 c 1.12333,-1.24129 1.22748,-1.90523 0.50931,-3.24715 -1.29628,-2.42211 -14.49685,-13.78163 -18.22611,-15.68416 l -3.15237,-1.60822 -2.02592,1.8922 c -2.43587,2.2751 -4.31329,5.70346 -4.31329,7.87652 0,1.89194 3.22319,3.92651 11.0432,6.97082 3.10431,1.20849 7.29259,2.897 9.30729,3.75224 4.60805,1.9561 5.12756,1.95972 6.85789,0.0478 l 0,-3e-5 z m 17.96971,-42.30137 c 0,-2.68335 -0.18719,-2.83704 -7.32618,-6.0153 -8.92115,-3.97168 -18.27311,-7.06953 -19.69485,-6.52397 -1.13717,0.43637 -3.50471,7.52871 -3.50471,10.49888 0,1.55705 0.6366,1.95556 4.2736,2.6753 8.91883,1.76496 14.23783,2.35618 20.14699,2.23942 l 6.10515,-0.12064 0,-2.75369 z m -11.33198,-37.5506 c 10.53828,-1.6906 14.69458,-2.95439 16.37304,-4.97851 2.26488,-2.73131 -1.46961,-4.50882 -12.54936,-5.97311 -4.82465,-0.63763 -10.26598,-1.39926 -12.09186,-1.69253 -4.62401,-0.74269 -6.04146,0.82012 -6.04146,6.66098 0,4.9081 1.02932,7.62153 2.89118,7.62153 0.66321,0 5.80152,-0.73726 11.41846,-1.63836 z m -2.34757,-40.25628 c 11.63003,-4.88491 14.08656,-6.43172 14.08656,-8.86995 0,-3.65719 -1.68569,-4.15085 -10.42146,-3.05199 -10.9208,1.37372 -15.98703,2.9202 -18.01582,5.4994 -2.00051,2.54323 -2.09586,4.2346 -0.45952,8.15092 1.09977,2.63211 1.46153,2.87658 3.61837,2.44521 1.31804,-0.26361 6.35438,-2.14172 11.19187,-4.17359 z"
       id="path5941"
       inkscape:connector-curvature="0"
       transform="translate(-220.82276,-78.571809)" />
    <path
       style="fill:#000000;fill-opacity:1;fill-rule:nonzero;stroke:none;stroke-width:0;stroke-miterlimit:4;stroke-dasharray:none;stroke-opacity:1"
       d="m 337.00804,293.2506 c -1.28651,-1.59646 -24.57693,-65.55233 -32.63982,-89.62946 l -3.77744,-11.28007 3.21999,-2.78926 c 3.39928,-2.94456 23.66915,-15.99627 29.54971,-19.02696 1.90576,-0.98218 3.95933,-1.59609 4.56351,-1.36425 0.70106,0.26902 1.25422,2.36136 1.52887,5.78295 0.40169,5.00423 2.18465,9.43192 3.79807,9.43192 1.1507,0 11.16722,-7.0438 22.763,-16.00737 5.98611,-4.62727 11.40785,-8.41322 12.04832,-8.41322 1.63854,0 3.16623,4.10535 5.17948,13.91879 4.4666,21.7722 3.03925,40.64227 -4.86171,64.27336 -6.75288,20.19727 -16.85647,35.67429 -33.29435,51.00142 -5.64083,5.25965 -6.70808,5.80165 -8.07763,4.10215 z m 9.9776,-16.97389 c 4.28665,-3.9513 13.6828,-17.52002 17.69901,-25.55864 4.87185,-9.75123 8.58971,-20.00635 10.47648,-28.8977 1.51899,-7.15818 1.81013,-11.06068 1.79148,-24.01358 -0.0245,-16.99616 -0.98979,-22.62058 -3.94648,-22.99417 -0.95443,-0.12059 -5.13671,2.49631 -10.40757,6.51216 -15.8338,12.06371 -15.73385,12.0049 -20.40365,12.0049 -5.06177,0 -7.49237,-1.49821 -8.25547,-5.08863 -0.30913,-1.45451 -1.12753,-3.28559 -1.81865,-4.06909 -1.35974,-1.54146 -4.67243,-1.91943 -5.47278,-0.62444 -0.27196,0.44005 -2.94932,2.40294 -5.94968,4.36198 -3.00036,1.95905 -6.34575,4.53214 -7.43419,5.71798 l -1.97899,2.15608 1.4564,6.30274 c 0.80103,3.46651 2.30686,8.5006 3.3463,11.18687 6.37869,16.48474 10.96047,29.048 17.36692,47.62015 4.78963,13.88503 5.21901,14.90624 7.27295,17.29792 1.7119,1.99338 2.17056,1.85307 6.25792,-1.91453 z"
       id="path5943"
       inkscape:connector-curvature="0"
       transform="translate(-220.82276,-78.571809)" />
    <path
       style="fill:#000000;fill-opacity:1;fill-rule:nonzero;stroke:none;stroke-width:0;stroke-miterlimit:4;stroke-dasharray:none;stroke-opacity:1"
       d="m 95.098129,252.80045 c -3.08148,-3.08148 -6.742602,-18.59285 -4.759002,-20.16284 0.576724,-0.45647 6.701989,-3.3356 13.611703,-6.39808 14.0409,-6.22311 17.2488,-8.37595 15.86054,-10.64411 -1.10192,-1.80035 -2.59462,-2.17353 -18.6385,-4.65983 -16.210873,-2.51218 -15.890302,-2.23621 -15.890302,-13.67951 0,-4.45693 0.362517,-8.78089 0.805593,-9.60879 0.940037,-1.75648 4.806337,-2.70379 20.217949,-4.95378 5.96657,-0.87108 11.55278,-1.96081 12.4138,-2.42161 2.11098,-1.12977 1.97797,-3.72891 -0.26604,-5.19882 -2.4574,-1.60969 -23.527208,-11.04811 -24.663174,-11.04811 -0.493989,0 -1.753657,-0.91063 -2.799265,-2.02362 l -1.901104,-2.02364 2.189382,-8.35512 c 3.236831,-12.35239 2.207614,-11.86477 20.335881,-9.63476 15.21747,1.87194 17.90449,1.80918 18.76695,-0.43835 0.8422,-2.19475 -0.89201,-4.05604 -11.50877,-12.3521 -5.7154,-4.46609 -11.27926,-9.07941 -12.36413,-10.25184 l -1.97248,-2.13168 3.81403,-7.68299 c 2.09772,-4.22564 4.73768,-8.40953 5.86659,-9.297527 2.44085,-1.919974 3.02462,-1.78483 14.61484,3.383337 9.95835,4.4405 16.89321,6.67655 18.63437,6.00841 3.16029,-1.21272 1.48655,-4.97924 -7.6451,-17.204247 -4.92482,-6.593107 -8.95422,-12.363074 -8.95422,-12.822147 0,-1.467691 5.6778,-8.629722 9.52824,-12.019018 2.04891,-1.803519 4.56143,-3.279125 5.58338,-3.279125 1.89256,0 2.86786,0.672893 16.89037,11.653147 5.64877,4.423242 8.6593,6.255286 10.27908,6.255286 4.43568,0 4.3386,-1.174198 -1.31331,-15.885021 -7.20916,-18.763994 -7.16091,-18.174258 -1.77586,-21.70358 8.93501,-5.855956 12.7852,-7.656102 14.32439,-6.697347 0.78652,0.489919 5.18952,5.887369 9.78443,11.994334 14.98122,19.911109 16.65635,18.726502 13.50266,-9.548738 -1.2698,-11.384707 -1.26814,-12.190524 0.0272,-13.137681 2.04533,-1.495583 17.23824,-5.570787 18.6907,-5.013422 1.96798,0.755185 3.71664,3.951934 7.92247,14.483182 4.06672,10.182968 7.62796,17.017584 8.86715,17.017584 2.64665,0 3.99504,-4.235458 6.21402,-19.518921 1.65833,-11.421936 2.52235,-14.483287 4.36619,-15.470082 2.46548,-1.319481 16.44624,-1.046254 18.4549,0.360664 1.90647,1.335345 2.71518,4.817399 4.8285,20.790004 0.74045,5.596385 1.68425,10.816287 2.09733,11.59978 0.97797,1.854941 3.62635,1.820969 5.2431,-0.06725 1.23331,-1.440413 5.9005,-11.961801 8.79592,-19.828972 0.77312,-2.100636 2.23482,-5.031107 3.24824,-6.512157 2.16843,-3.16904 3.72256,-3.232674 13.67545,-0.559942 10.02727,2.692705 9.44369,1.064316 7.25695,20.249353 -1.70335,14.944103 -1.75894,16.582646 -0.6019,17.739694 2.11592,2.115914 4.48587,0.261044 11.86718,-9.28797 9.36736,-12.118302 12.15376,-14.960822 14.66407,-14.959374 2.59299,0.0015 15.60948,8.233227 16.40062,10.371891 0.39423,1.065692 -1.09259,5.803781 -4.55956,14.530091 -6.04421,15.213186 -6.78763,18.028868 -4.9466,18.735337 2.4773,0.950629 5.30227,-0.553261 15.63243,-8.322002 5.72526,-4.305653 11.25256,-8.212553 12.28288,-8.682002 2.65419,-1.209329 4.95165,0.230608 11.69564,7.33028 l 5.65558,5.953851 -1.24622,2.409933 c -1.11651,2.159082 -5.31442,7.900654 -14.51961,19.858771 -2.31104,3.00221 -3.00682,4.6082 -2.82129,6.51216 0.2318,2.37892 0.43731,2.52297 3.50233,2.45476 2.05669,-0.0457 7.55727,-1.9198 14.93293,-5.08762 6.42226,-2.75834 12.50116,-5.015171 13.50866,-5.015171 2.0077,0 4.0481,1.908621 4.84449,4.531611 0.35155,1.15786 -0.0627,2.21306 -1.32825,3.38378 -3.60174,3.33172 -36.54103,22.20334 -38.75461,22.20334 -0.40592,0 -3.41795,-3.57151 -6.6934,-7.93669 C 355.54836,105.99107 339.08596,91.049088 325.80679,83.810611 298.20288,68.763705 268.24094,63.858298 238.90383,69.582747 c -13.00648,2.537911 -18.50956,4.414513 -31.1113,10.609256 -32.04949,15.754838 -55.65807,42.847217 -66.66878,76.506797 -7.23888,22.12911 -8.00787,50.62457 -2.01851,74.79673 2.02824,8.18568 1.7216,9.19966 -4.19683,13.87792 -5.09913,4.03062 -9.07362,5.21005 -24.76294,7.34836 -14.668666,1.99922 -13.134775,1.9912 -15.047341,0.0786 z m 28.854291,-11.7477 c 5.33091,-2.44058 6.41103,-4.25235 5.68446,-9.53512 -0.68228,-4.96073 -1.29524,-5.02775 -11.38651,-1.24484 -16.40445,6.14954 -20.099703,8.56416 -18.287702,11.94992 0.943942,1.76377 1.236782,1.8011 10.313902,1.31464 7.44994,-0.39925 10.22018,-0.90254 13.67585,-2.4846 z m 1.05431,-36.4896 c 1.04917,-1.04916 1.19704,-8.67231 0.23369,-12.04749 -0.53926,-1.88938 -0.89763,-2.01899 -5.00648,-1.81074 -6.49361,0.32911 -21.264029,2.65298 -23.148086,3.64195 -1.703004,0.89393 -2.815461,2.18898 -2.836604,3.30219 -0.02718,1.43112 7.53147,3.8605 15.8621,5.09812 4.83053,0.71764 9.55371,1.61639 10.49595,1.99721 2.40941,0.97379 3.28028,0.93792 4.39943,-0.18124 z m 5.40565,-43.20235 c 2.35647,-8.21766 3.63821,-7.63857 -24.01117,-10.8481 -3.64814,-0.42348 -4.78965,-0.25837 -5.90165,0.85363 -1.848824,1.84882 -1.743724,2.62982 0.65279,4.85083 2.69098,2.49391 23.05032,11.11392 25.64462,10.85776 1.76751,-0.17452 2.24188,-0.92426 3.61541,-5.71412 z m 12.21935,-31.32115 c 3.11136,-4.70433 4.15647,-8.26262 2.78893,-9.49549 -1.53717,-1.38579 -12.93161,-6.38402 -19.75663,-8.66635 l -5.61065,-1.87623 -1.51202,1.86727 c -0.83162,1.02699 -1.51202,2.2088 -1.51202,2.62624 0,1.75552 20.42325,18.57055 22.57749,18.58867 0.55329,0.005 1.91449,-1.36519 3.0249,-3.04411 z m 23.42811,-32.071874 c 2.16446,-2.305436 3.80743,-4.575526 3.65106,-5.044644 -0.15637,-0.469119 -5.17448,-4.461323 -11.15136,-8.871565 -10.90591,-8.047301 -13.90781,-9.296344 -14.52782,-6.04479 -0.15615,0.818906 -0.0759,2.317826 0.17841,3.330934 0.9814,3.910197 14.78396,20.821769 16.99391,20.821769 0.50623,0 2.69134,-1.88626 4.8558,-4.191704 z M 370.97289,95.89129 c 6.33403,-6.912481 11.42686,-14.508938 11.42686,-17.044281 0,-1.357836 -0.64367,-2.20716 -2.08924,-2.756768 -1.76205,-0.669928 -2.55884,-0.415621 -5.08763,1.623788 -4.9231,3.970365 -15.88835,11.930107 -17.85423,12.960496 -1.00735,0.527988 -1.83155,1.365729 -1.83155,1.861646 0,1.379002 7.73692,8.809289 9.17283,8.809289 0.69586,0 3.51419,-2.454377 6.26296,-5.45417 z M 192.4576,77.793072 c 3.77716,-1.715015 6.78772,-4.380986 6.78772,-6.010795 0,-0.940901 -5.20231,-7.854168 -14.35375,-19.074495 -3.07986,-3.776124 -5.44041,-4.392063 -6.83631,-1.783801 -1.19035,2.224189 -0.48608,5.109166 3.81415,15.624355 1.96876,4.814112 3.92736,9.667704 4.35245,10.78576 0.92098,2.422377 1.77335,2.485116 6.23574,0.458976 z m 148.41712,-5.732383 c 4.84495,-9.63612 7.52793,-18.132147 6.54358,-20.721172 -1.53697,-4.042561 -4.6448,-2.17938 -11.44747,6.862898 -1.51569,2.014699 -4.3269,5.442673 -6.24712,7.617721 -1.92022,2.175048 -3.49131,4.58378 -3.49131,5.352738 0,2.404624 6.59706,7.269947 9.96265,7.347441 0.9668,0.02226 2.4501,-2.025238 4.67967,-6.459626 z M 229.62107,62.150651 c 3.66097,-1.926983 3.8851,-4.650152 0.94469,-11.477918 -1.10865,-2.574338 -2.85272,-6.639379 -3.87571,-9.033427 -2.81646,-6.591184 -4.41838,-8.671502 -6.67735,-8.671502 -2.58478,0 -3.97721,2.641051 -3.38327,6.417125 0.25469,1.619256 1.02902,7.287577 1.72073,12.596268 0.69171,5.30869 1.45973,9.979128 1.7067,10.378751 0.64581,1.044936 7.46487,0.895713 9.56421,-0.209297 z m 75.24398,-0.08164 c 0.44579,-0.559638 1.59152,-6.481896 2.54607,-13.160573 1.58845,-11.113838 1.62732,-12.308211 0.45873,-14.091713 -2.21698,-3.38353 -4.31276,-2.128155 -7.78506,4.66324 -4.25682,8.325836 -8.11926,18.38594 -7.58929,19.767035 1.12013,2.918978 10.57421,5.075851 12.36955,2.822011 z m -36.90164,-5.174714 c 1.67244,-0.641775 1.66379,-4.358594 -0.0374,-16.045238 -1.73256,-11.902669 -2.08311,-12.76537 -5.18719,-12.76537 -3.11192,0 -3.74294,1.492393 -5.31971,12.581181 -1.7162,12.06946 -1.59891,14.98457 0.6391,15.884142 2.13098,0.856551 8.03637,1.062407 9.90516,0.345285 z"
       id="path5945"
       inkscape:connector-curvature="0"
       transform="translate(-220.82276,-78.571809)" />
    <path
       style="fill:#000000;fill-opacity:1;fill-rule:nonzero;stroke:none;stroke-width:0;stroke-miterlimit:4;stroke-dasharray:none;stroke-opacity:1"
       d="m 179.64745,288.25058 c -7.98691,-6.87655 -20.28909,-22.51635 -20.28909,-25.79357 0,-2.73851 5.8829,-6.77199 9.17945,-6.2937 2.00758,0.29128 2.83103,2.56126 2.9497,8.13145 0.10332,4.84913 1.67875,6.64756 4.7878,5.4655 1.21524,-0.46203 2.75967,-1.31717 3.43205,-1.90031 2.7259,-2.36408 16.67831,-10.3427 18.84395,-10.77583 3.28295,-0.65658 3.11165,0.61865 -2.06917,15.40386 -5.989,17.09164 -7.72707,20.96612 -9.40525,20.96612 -0.76214,0 -4.10539,-2.34158 -7.42944,-5.20352 z"
       id="path5947"
       inkscape:connector-curvature="0"
       transform="translate(-220.82276,-78.571809)" />
    <path
       style="fill:#000000;fill-opacity:1;fill-rule:nonzero;stroke:none;stroke-width:0;stroke-miterlimit:4;stroke-dasharray:none;stroke-opacity:1"
       d="m 237.09724,319.0307 c -12.83339,-3.11305 -29.54235,-9.81271 -32.07065,-12.85913 -1.27272,-1.53353 -2.00074,0.82924 11.06674,-35.91703 5.57242,-15.66988 10.97692,-29.7897 12.00999,-31.37739 1.21126,-1.86153 5.34394,-5.11377 11.63689,-9.15772 5.36722,-3.44906 10.13071,-6.27102 10.58554,-6.27102 0.45482,0 1.1114,0.8242 1.45906,1.83155 0.90362,2.61829 1.45329,88.48368 0.5879,91.83765 -0.71239,2.76095 -0.77443,2.79384 -5.55589,2.94499 -2.6595,0.0841 -7.03331,-0.38028 -9.71958,-1.0319 z m 6.48484,-9.28581 2.11371,-0.80364 -0.22918,-34.17083 c -0.26215,-39.08717 -0.0623,-37.95758 -6.18032,-34.93061 -1.90967,0.94483 -3.96615,2.68003 -4.56995,3.85601 -1.33855,2.60698 -17.06933,46.42737 -18.30071,50.97931 -1.63025,6.02637 -1.24825,7.45973 2.56967,9.64213 3.80787,2.17667 9.76874,4.25627 15.32407,5.34621 5.04088,0.989 6.84395,1.00483 9.27271,0.0814 z"
       id="path5949"
       inkscape:connector-curvature="0"
       transform="translate(-220.82276,-78.571809)" />
    <path
       style="fill:#000000;fill-opacity:1;fill-rule:nonzero;stroke:none;stroke-width:0;stroke-miterlimit:4;stroke-dasharray:none;stroke-opacity:1"
       d="m 256.2267,393.56286 c -8.13314,-0.6092 -10.90779,-1.38807 -14.7883,-4.15123 -2.2518,-1.60343 -2.52109,-1.622 -5.6083,-0.38674 -4.17574,1.6708 -7.60239,1.65085 -9.01194,-0.0525 -1.50561,-1.8194 -7.12601,-4.30816 -9.77902,-4.33023 -1.1823,-0.01 -3.74646,-0.74245 -5.69813,-1.62804 -1.95167,-0.88559 -4.59204,-1.6182 -5.86752,-1.62804 -3.18656,-0.0246 -7.14214,-2.03315 -11.42066,-5.79925 -3.2386,-2.85071 -4.05061,-3.17282 -7.99853,-3.17282 -3.85,0 -5.3063,-0.53909 -11.76281,-4.35436 -4.05285,-2.39489 -10.21409,-5.92499 -13.69164,-7.84464 -6.80024,-3.75381 -11.82375,-7.71142 -11.82375,-9.31495 0,-1.48095 -3.16938,-4.0561 -7.51297,-6.10436 -2.67877,-1.2632 -7.08688,-5.18329 -14.49121,-12.8869 -8.6453,-8.99474 -10.81977,-11.73861 -11.59263,-14.62826 -0.7866,-2.94103 -1.92105,-4.33484 -6.5527,-8.05084 -3.08077,-2.47173 -6.09222,-4.68239 -6.69211,-4.91259 -1.18577,-0.45502 -31.939132,16.91157 -39.851473,22.50435 -1.343133,0.94938 -5.37253,3.39034 -8.954217,5.42436 -3.581686,2.03402 -13.56725,7.72676 -22.190143,12.65053 -17.051472,9.73659 -20.473546,10.89517 -24.9925081,8.46155 -5.17994096,-2.78959 -6.94139097,-9.59787 -3.5866017,-13.86279 1.8881063,-2.40034 17.2439658,-14.52236 41.5476148,-32.79795 19.804629,-14.89247 38.836497,-29.73135 40.899337,-31.88864 2.297228,-2.40241 2.339777,-2.59269 1.332851,-5.95987 -0.572069,-1.91302 -1.904432,-5.18585 -2.960801,-7.27296 -1.056362,-2.08709 -2.629618,-7.03226 -3.496112,-10.98926 -0.866497,-3.95699 -2.549402,-9.7587 -3.739788,-12.89267 -2.151221,-5.6636 -2.156041,-5.72581 -0.795232,-10.26382 1.349974,-4.50187 1.33935,-4.66683 -0.760208,-11.80329 -1.857078,-6.31226 -2.129294,-8.7167 -2.129132,-18.80637 1.62e-4,-10.08194 0.260398,-12.38356 2.024843,-17.90843 2.330889,-7.29854 2.451751,-8.9901 0.798524,-11.17587 -1.680624,-2.22198 -1.553022,-3.21745 1.653927,-12.90296 1.566988,-4.73257 2.849069,-9.1407 2.849069,-9.79585 0,-2.71112 3.385785,-11.85144 5.994164,-16.18197 1.746244,-2.89917 3.009928,-6.26345 3.363359,-8.95421 0.403127,-3.06912 1.806684,-6.41968 4.874504,-11.63636 2.369595,-4.0294 5.235848,-9.179411 6.369443,-11.444462 2.93756,-5.86957 8.1086,-12.125303 11.01956,-13.331062 1.92747,-0.798382 2.79173,-1.934216 3.81429,-5.012852 0.92688,-2.790593 3.34296,-6.25031 8.08195,-11.573036 9.44668,-10.610272 14.5773,-14.95983 21.36559,-18.112964 4.76316,-2.212473 6.16432,-3.305896 7.45046,-5.814108 2.07677,-4.050096 3.82177,-5.517881 13.54576,-11.393829 11.93547,-7.212292 14.57469,-8.387425 20.41673,-9.090741 4.66515,-0.561631 5.68051,-1.02068 8.71231,-3.938891 4.16554,-4.009476 6.22041,-5.121353 9.46479,-5.121353 1.36235,0 4.90998,-0.915772 7.88362,-2.035049 2.97365,-1.119277 6.04407,-2.0350496 6.82316,-2.0350496 0.7791,0 3.47589,-1.0989266 5.99286,-2.442059 5.11269,-2.7282867 7.18432,-3.0198018 8.67717,-1.2210296 1.14346,1.3777894 6.14454,1.6603912 6.92873,0.3915307 0.28196,-0.4562243 2.40986,-1.8298825 4.72866,-3.0525738 4.09876,-2.16125575 4.58949,-2.22307501 17.64732,-2.22307501 l 13.43133,0 5.42339,3.05257381 c 5.69439,3.2051044 10.15666,3.9501462 10.96963,1.8315443 0.70106,-1.826911 2.06309,-1.5542149 11.97534,2.3976152 4.9921,1.990255 11.71125,4.212685 14.93144,4.938735 3.87986,0.874782 7.00627,2.194096 9.26806,3.911037 6.09102,4.623744 7.62665,5.431376 10.33549,5.435731 3.595,0.0058 10.87048,2.641726 14.17593,5.13602 1.48206,1.118357 6.71245,4.255177 11.62311,6.970711 7.96435,4.404193 9.19494,5.389945 11.39627,9.128866 2.08407,3.539746 3.1249,4.436117 6.69342,5.764439 3.43723,1.279448 6.18116,3.536046 14.70696,12.094978 10.94084,10.983332 11.99023,12.389142 12.75673,17.089391 0.39761,2.43826 1.42193,3.55271 6.92072,7.529685 3.54971,2.567312 6.88102,4.667849 7.40291,4.667849 0.5219,0 1.92122,-0.691102 3.10961,-1.535786 1.18838,-0.844684 6.73957,-4.096497 12.33595,-7.226248 11.78295,-6.589564 21.01019,-11.964149 25.64162,-14.935462 3.05171,-1.957838 18.0031,-10.816234 33.78182,-20.01505 12.64133,-7.369753 18.05952,-8.307635 22.47649,-3.890658 1.57546,1.575461 1.9441,2.788218 1.9441,6.395753 0,5.30163 -1.75595,7.814327 -8.86,12.678375 -2.51423,1.721457 -5.85341,4.306293 -7.42039,5.744082 -2.78253,2.553103 -18.55681,14.671172 -51.59504,39.636162 -10.39342,7.85369 -16.65677,13.13409 -17.14527,14.45456 -0.59201,1.60028 -0.34011,3.06559 1.09131,6.34839 2.6764,6.13794 4.52805,11.76496 7.93798,24.12286 2.82086,10.22302 2.94911,11.18524 2.06275,15.47657 -0.83997,4.06673 -0.74248,5.2539 0.87625,10.67077 1.54471,5.1692 1.82169,8.01139 1.82352,18.71226 0.002,10.83972 -0.25726,13.44246 -1.83922,18.47421 -1.48118,4.7112 -1.74529,6.9405 -1.35014,11.39628 0.51528,5.81046 0.43824,6.26774 -3.65323,21.68264 -2.4767,9.33116 -5.4481,16.54172 -8.02081,19.46374 -0.71666,0.81396 -1.35701,3.37148 -1.50299,6.00284 -0.25992,4.68493 -0.74914,5.72317 -9.54449,20.25564 -1.62578,2.68627 -3.66085,6.39155 -4.52238,8.23396 -0.86152,1.84241 -3.11486,4.58973 -5.0074,6.10515 -6.4472,5.16246 -7.29384,6.21222 -7.28037,9.02696 0.0114,2.38658 -1.31734,3.98881 -12.04274,14.52119 -11.79622,11.58394 -13.28176,12.64862 -20.30282,14.55096 -3.00733,0.81483 -3.5383,1.31423 -4.26445,4.01098 -1.10346,4.0979 -2.46802,5.21088 -16.49813,13.45646 -9.08146,5.33722 -12.92934,7.15328 -15.87339,7.49167 -6.5327,0.75085 -7.48344,1.10121 -10.62225,3.91438 -3.64597,3.2677 -7.56843,5.36853 -10.1143,5.41712 -1.02958,0.0196 -3.33721,0.59962 -5.12805,1.28883 -1.79084,0.6892 -4.93274,1.55681 -6.98199,1.92802 -2.04924,0.37122 -5.50931,1.80594 -7.68905,3.18829 -4.51165,2.8612 -6.66146,3.08943 -10.76388,1.14271 -2.74038,-1.3004 -3.01784,-1.2928 -5.41415,0.14824 -9.51114,5.71965 -10.11354,5.81509 -28.16736,4.46281 z m 17.06687,-8.83019 5.26358,-0.51537 1.73731,-12.42769 c 0.95552,-6.83522 1.96641,-12.65678 2.24642,-12.93681 1.01571,-1.0157 2.78345,1.46242 5.74621,8.05534 5.82151,12.95447 5.42691,12.40462 9.04761,12.60742 1.91693,0.10737 8.11047,-1.23177 15.05936,-3.25608 l 11.80329,-3.43846 0.24506,-4.71192 c 0.13478,-2.59157 -0.13066,-8.07718 -0.58987,-12.19025 -0.45921,-4.11307 -0.56949,-7.7374 -0.24506,-8.05407 0.91936,-0.89739 2.72259,0.82687 8.22192,7.86183 2.79985,3.58169 6.04613,7.13161 7.21396,7.88872 1.89032,1.22552 2.42665,1.24982 4.88779,0.22149 3.99046,-1.66732 20.13817,-11.50501 21.42035,-13.04995 1.75441,-2.11393 1.10501,-5.94648 -2.42717,-14.32434 -3.07218,-7.28682 -4.06051,-11.26166 -2.80018,-11.26166 0.28431,0 3.67267,2.33958 7.52968,5.19907 10.98849,8.14659 12.17601,8.74891 14.67738,7.4446 2.34568,-1.22313 13.95835,-12.9851 17.53381,-17.75924 2.79975,-3.73837 2.70415,-4.02512 -4.84956,-14.54486 -5.07744,-7.07114 -6.26302,-9.64428 -4.44363,-9.64428 0.46524,0 5.29142,1.66296 10.72485,3.69546 5.43343,2.03251 10.36523,3.50886 10.95953,3.28081 2.10977,-0.80959 15.72865,-23.43621 15.72865,-26.13182 0,-1.3371 -3.9362,-5.14045 -11.59978,-11.20829 -3.46976,-2.74728 -6.30866,-5.33506 -6.30866,-5.75064 0,-0.72123 9.65421,-0.31433 19.25148,0.81139 3.90511,0.45805 4.29049,0.34157 5.62923,-1.70161 1.8545,-2.83033 5.95943,-17.39812 6.59899,-23.41882 0.6127,-5.76788 -0.007,-6.62645 -7.05911,-9.78307 -10.38081,-4.64646 -12.21029,-5.65675 -12.21029,-6.74284 0,-1.66996 0.89253,-1.97603 10.63901,-3.64825 11.431,-1.96125 11.8783,-2.11527 12.46154,-4.29083 0.78685,-2.93504 0.57309,-25.53578 -0.2623,-27.73302 -0.79905,-2.10166 -3.43141,-2.91975 -13.47702,-4.18845 -6.35058,-0.80204 -10.17525,-1.99947 -10.17525,-3.18568 0,-0.60459 3.94585,-2.79157 8.90101,-4.93336 4.89556,-2.11603 9.53367,-4.5464 10.30692,-5.40083 1.90744,-2.1077 1.65286,-5.58224 -1.20546,-16.45257 -4.33192,-16.47444 -3.49179,-15.73771 -16.22875,-14.23126 -5.31415,0.62852 -10.08506,1.00177 -10.60202,0.82945 -2.86397,-0.95466 0.57558,-4.22905 18.59654,-17.70353 4.70096,-3.51497 12.02714,-9.17707 16.28039,-12.58245 4.25325,-3.40538 15.60883,-12.194493 25.23461,-19.531367 43.11354,-32.861612 46.51784,-35.7627 44.63215,-38.03482 -0.59008,-0.711002 -1.70099,-0.972632 -2.87681,-0.67752 -1.95266,0.490086 -46.58402,26.517398 -69.43201,40.49011 -16.04121,9.81002 -23.39336,13.703827 -24.83242,13.151607 -0.62663,-0.24046 -2.28362,-2.220413 -3.68219,-4.399902 -1.39857,-2.179481 -3.20341,-4.172339 -4.01074,-4.428576 -0.80735,-0.256246 -5.76064,1.193214 -11.00732,3.22101 -8.86567,3.426502 -12.63469,4.382536 -12.63469,3.204861 0,-0.265118 3.16597,-4.861838 7.03548,-10.21493 6.54568,-9.055288 6.96306,-9.868202 5.99524,-11.676611 -0.57215,-1.06905 -5.3618,-6.212041 -10.64369,-11.428869 -8.2307,-8.129335 -9.87307,-9.405222 -11.48986,-8.926032 -1.03754,0.307509 -5.44987,3.270505 -9.80518,6.584434 -4.3553,3.31393 -8.30462,6.025326 -8.77625,6.025326 -1.89032,0 -1.51238,-2.438427 1.5411,-9.942924 4.75703,-11.691299 4.77524,-11.938188 1.13544,-15.394146 -4.24276,-4.028459 -9.72796,-7.60453 -16.85795,-10.990548 -4.7219,-2.242424 -6.37809,-2.686685 -7.59265,-2.036675 -0.85437,0.457244 -3.77256,3.690054 -6.48487,7.184023 -4.99822,6.438639 -8.93197,10.574862 -9.46402,9.951133 -0.16064,-0.188312 0.23023,-5.401837 0.86861,-11.585612 1.26451,-12.249222 1.1241,-12.933689 -2.99158,-14.582809 -6.10384,-2.445763 -20.43103,-6.31196 -23.41776,-6.319294 -4.10055,-0.01007 -4.49786,0.487845 -8.76217,10.980818 -3.45855,8.510277 -4.94154,10.857747 -6.11679,9.682492 -0.44675,-0.446745 -1.38379,-5.005918 -2.08231,-10.131496 -0.69852,-5.125578 -1.62783,-10.69289 -2.06513,-12.371806 l -0.79509,-3.052574 -15.38014,0 c -13.93545,0 -15.42197,0.133809 -15.82541,1.424535 -0.2449,0.783494 -1.14695,6.312992 -2.00458,12.287773 -0.85762,5.974782 -1.91898,11.222905 -2.35856,11.662497 -1.12924,1.129224 -3.46482,-2.496217 -6.64544,-10.315441 -3.83917,-9.438212 -4.42106,-10.175246 -8.03332,-10.175246 -2.93611,0 -20.78463,4.745719 -24.89907,6.620382 -2.55607,1.164625 -2.76678,2.208157 -2.0327,10.067022 0.33456,3.581687 0.63435,8.682286 0.66621,11.334666 l 0.0579,4.822508 -2.11531,-1.973439 c -1.16342,-1.085392 -4.461,-4.97106 -7.32797,-8.634818 -2.86697,-3.663757 -5.89609,-6.878288 -6.73139,-7.143402 -2.10834,-0.669161 -4.88207,0.52402 -13.45583,5.788306 -11.74859,7.213629 -12.69852,8.064577 -12.69852,11.375325 0,1.577944 1.49062,6.681522 3.31251,11.341285 3.03761,7.769228 3.4164,10.127465 1.62668,10.127465 -0.36459,0 -3.91448,-2.50859 -7.88865,-5.574644 -10.45469,-8.065725 -10.36651,-8.033084 -14.31298,-5.298184 -1.80975,1.25416 -6.73257,5.953578 -10.93961,10.443152 -8.99228,9.596201 -8.93199,9.048154 -2.08482,18.951733 6.1209,8.853107 7.14042,10.593872 6.55021,11.184077 -0.27156,0.271557 -2.6428,-0.289066 -5.26944,-1.245832 -14.94092,-5.442268 -16.75208,-5.957257 -18.05673,-5.134308 -1.61962,1.021628 -11.84513,18.116615 -13.693825,22.893315 -1.327422,3.4298 -1.318167,3.51546 0.603066,5.58 1.073149,1.15321 4.973229,4.49846 8.666839,7.43389 3.69362,2.93543 6.71567,5.83679 6.71567,6.44745 0,0.89759 -2.29557,1.06735 -11.98217,0.88613 l -11.982158,-0.22417 -1.104217,2.27536 c -1.2922,2.66274 -3.512463,10.59145 -5.465231,19.51672 -1.169592,5.3457 -1.213125,6.53353 -0.280983,7.66703 0.606672,0.73772 5.181512,3.26041 10.166308,5.60597 4.984796,2.34558 9.284891,4.62328 9.555771,5.06156 0.98639,1.59602 -1.88251,2.6421 -10.566645,3.85289 -10.032451,1.39878 -11.872844,1.85305 -12.720545,3.13982 -1.083698,1.645 -0.730697,28.53485 0.394545,30.05445 0.728686,0.98405 3.559333,1.72256 9.971741,2.6016 12.135524,1.66357 13.431324,1.98267 13.431324,3.30756 0,1.18146 -7.112537,5.10037 -12.312552,6.78406 -1.623228,0.52558 -4.365677,2.17821 -6.094329,3.67252 l -3.143003,2.71691 2.352272,9.66717 c 3.290138,13.52148 4.801911,17.65824 6.827346,18.6821 1.251873,0.63282 4.4961,0.57464 11.730956,-0.21039 9.96127,-1.08085 12.03559,-1.00136 12.03559,0.46123 0,0.4233 -22.619576,18.1777 -50.265719,39.4542 -27.646144,21.2765 -51.639374,39.94754 -53.31829,41.4912 -3.2819792,3.01757 -3.8812881,5.16924 -1.675559,6.01565 1.774767,0.68104 9.132714,-3.19525 30.312897,-15.96937 28.035567,-16.90872 50.577287,-30.06931 57.691542,-33.6822 l 6.758459,-3.43221 2.19576,2.50435 c 1.20767,1.37739 3.02295,3.48989 4.03395,4.69445 2.16421,2.57853 2.884,2.49107 13.14242,-1.59687 7.64993,-3.04848 12.28905,-4.16247 12.28905,-2.95098 0,0.4384 -2.198,3.64137 -4.88445,7.11771 -6.9908,9.04633 -8.38837,11.51594 -7.81339,13.80686 0.57398,2.28693 17.50926,19.58339 19.92523,20.35019 2.10337,0.66759 5.15189,-0.92863 13.27169,-6.94911 6.28504,-4.66006 8.80563,-5.78814 8.80563,-3.9409 0,0.48506 -1.14402,3.69026 -2.54225,7.12267 -5.76454,14.1509 -5.68665,15.31919 1.3319,19.97924 6.61805,4.39415 17.85702,10.2751 19.63652,10.2751 1.80844,0 4.8201,-2.99707 10.26189,-10.2122 4.56122,-6.04762 6.22373,-7.53263 7.00953,-6.26119 0.31386,0.50784 0.15054,5.13882 -0.36293,10.29106 -1.11877,11.22587 -0.83757,13.20516 2.09125,14.71971 4.33567,2.24207 22.04564,7.02466 25.07985,6.77285 3.33875,-0.27709 3.06677,0.11405 8.81435,-12.67591 2.84641,-6.33402 4.73136,-9.07018 5.62966,-8.17189 0.21591,0.21592 1.14672,5.85433 2.06847,12.5298 0.92175,6.67548 1.92674,12.37641 2.23332,12.66874 0.30658,0.29232 1.29003,0.70771 2.18546,0.92309 2.33705,0.56213 17.78985,0.48147 23.98603,-0.12521 z"
       id="path5951"
       inkscape:connector-curvature="0"
       transform="translate(-220.82276,-78.571809)" />
    <path
       style="fill:#000000;fill-opacity:1;fill-rule:nonzero;stroke:none;stroke-width:0;stroke-miterlimit:4;stroke-dasharray:none;stroke-opacity:1"
       d="m 277.44416,116.86478 c -1.94634,-1.94634 -1.98205,-2.20246 -0.78562,-5.63452 1.20162,-3.44698 2.85732,-3.79838 17.35289,-3.68297 13.45822,0.10715 14.32565,0.44402 14.30007,5.55353 -0.0242,4.82519 -0.27013,4.90823 -15.36981,5.18849 -13.05859,0.24239 -13.90876,0.16424 -15.49753,-1.42453 z"
       id="path5953"
       inkscape:connector-curvature="0"
       transform="translate(-220.82276,-78.571809)"
       inkscape:export-xdpi="200"
       inkscape:export-ydpi="200" />
  </g>
</svg>
